<svg xmlns="http://www.w3.org/2000/svg" xmlns:xlink="http://www.w3.org/1999/xlink" viewBox="0 0 530.37 360.05"><defs><style>.cls-1,.cls-40,.cls-42,.cls-5{fill:none;}.cls-2{fill:#0a0512;}.cls-3{fill:#f40141;}.cls-4{fill:#fff;}.cls-36,.cls-39,.cls-40,.cls-5,.cls-6{stroke:#000;}.cls-35,.cls-36,.cls-39,.cls-40,.cls-42,.cls-5,.cls-6{stroke-miterlimit:10;}.cls-35,.cls-39,.cls-42,.cls-5,.cls-6{stroke-width:0.25px;}.cls-34,.cls-35,.cls-6{fill:#1a1a1a;}.cls-7{fill:#0e0517;}.cls-8{fill:#f90239;}.cls-9{fill:#b76b67;}.cls-10{fill:#8c464d;}.cls-11{fill:#f0bcc4;}.cls-12{fill:#73464d;}.cls-13{fill:#875154;}.cls-14{isolation:isolate;}.cls-15{clip-path:url(#clip-path);}.cls-16{fill:#51292d;}.cls-17{fill:#542a2e;}.cls-18{fill:#572b30;}.cls-19{fill:#5a2d31;}.cls-20{fill:#5c2e33;}.cls-21{clip-path:url(#clip-path-2);}.cls-22{fill:#4e272b;}.cls-23{fill:#4c262a;}.cls-24{fill:#492428;}.cls-25{clip-path:url(#clip-path-3);}.cls-26{clip-path:url(#clip-path-4);}.cls-27{clip-path:url(#clip-path-5);}.cls-28{clip-path:url(#clip-path-6);}.cls-29{clip-path:url(#clip-path-7);}.cls-30{clip-path:url(#clip-path-8);}.cls-31{clip-path:url(#clip-path-9);}.cls-32{fill:#a96167;}.cls-33{fill:url(#linear-gradient);}.cls-35,.cls-42{stroke:#fff;}.cls-37,.cls-38{opacity:0.64;}.cls-37{fill:url(#radial-gradient);}.cls-38{fill:url(#radial-gradient-2);}.cls-41{fill:#864a4c;}.cls-43{fill:url(#White_Black);}.cls-44{fill:#4a2c38;}.cls-45{fill:#c47a83;}.cls-46{fill:#a15f6f;}.cls-47{fill:#42210b;}</style><clipPath id="clip-path"><path class="cls-1" d="M359.5,200.18c0-.39.45-.71,1-.71v1.42c-.55,0-1,.31-1,.71Z"/></clipPath><clipPath id="clip-path-2"><path class="cls-1" d="M360.5,199.47c.55,0,1,.32,1,.71v1.42c0-.4-.45-.71-1-.71Z"/></clipPath><clipPath id="clip-path-3"><path class="cls-1" d="M361.5,200.18v1.42c0,.39-.45.71-1,.71s-1-.32-1-.71v-1.42c0,.39.45.71,1,.71S361.5,200.57,361.5,200.18Z"/></clipPath><clipPath id="clip-path-4"><path class="cls-1" d="M347.38,176.18c0-.44.5-.79,1.12-.79v1.41c-.62,0-1.12.36-1.12.8Z"/></clipPath><clipPath id="clip-path-5"><path class="cls-1" d="M348.5,175.39c.62,0,1.13.35,1.13.79v1.42c0-.44-.51-.8-1.13-.8Z"/></clipPath><clipPath id="clip-path-6"><path class="cls-1" d="M349.38,176.18v1.42c0-.35-.4-.62-.88-.62s-.87.27-.87.62v-1.42c0-.34.39-.61.87-.61S349.38,175.84,349.38,176.18Z"/></clipPath><clipPath id="clip-path-7"><path class="cls-1" d="M348.5,176.8c.48,0,.88-.28.88-.62v1.42c0,.33-.4.61-.88.61Z"/></clipPath><clipPath id="clip-path-8"><path class="cls-1" d="M347.63,176.18c0,.34.39.62.87.62v1.41c-.48,0-.87-.28-.87-.61Z"/></clipPath><clipPath id="clip-path-9"><path class="cls-1" d="M349.63,176.18v1.42c0,.44-.51.79-1.13.79s-1.12-.35-1.12-.79v-1.42c0,.44.5.8,1.12.8S349.63,176.62,349.63,176.18Z"/></clipPath><linearGradient id="linear-gradient" x1="267.12" y1="193.8" x2="300.85" y2="193.8" gradientUnits="userSpaceOnUse"><stop offset="0" stop-color="#fff"/><stop offset="0.24"/><stop offset="0.6" stop-color="#333"/></linearGradient><radialGradient id="radial-gradient" cx="277.46" cy="193.89" r="0.2" gradientUnits="userSpaceOnUse"><stop offset="0" stop-color="#fff"/><stop offset="1" stop-color="#e6e6e6"/></radialGradient><radialGradient id="radial-gradient-2" cx="288.25" cy="193.7" r="8.01" xlink:href="#radial-gradient"/><linearGradient id="White_Black" x1="198.99" y1="204.35" x2="217.53" y2="204.35" gradientUnits="userSpaceOnUse"><stop offset="0" stop-color="#fff"/><stop offset="1"/></linearGradient></defs><g id="artwork"><path class="cls-2" d="M346.84,161.89a8.23,8.23,0,0,0,.91,6A5.06,5.06,0,0,1,346.84,161.89Zm-8.13-25.59c0,.45.58,1-1.92-.41-3.66-2-3.66-4-3.66-4,0,1,3.15,2.76,3.15,2.76,1.13,1.39,1.93,1.7,2.43,1.65,0-.21.12-.41.73-.41A1,1,0,0,1,338.71,136.3ZM360,150.07l-1.52-.9-.62.72-.91,1v-1l.91-1h1.6v-.74H360Zm3.25-32.22h0l-20.92-12-19.2,5-.77,1.52-2.73,15.49c.56,3.65,1.23,7,1.67,6,.92-2,1.83-6,3.66-4s.91,9,2.74,9c0,0,4.09-5,3-9.48.14.53,2.67,9.45,8,8.48,0,0,0,10,.92,9s3.66-5,4.57-4,0,6-1.83,7,.92,5,4.57,5-1.83,0-1.83,3c0,0,1.56,2.12,3,1.13a8,8,0,0,0-2.11,2.87s-2.74,4,2.74,8c0,0,0-1,1.83-2s1.83,5,1.83,5-1.83-2-1.83,1,0,2.66,1.67,2.8h.16c1.83.18,4.57.18,5.48-1.82s-1.82-1-1.82-6c0,0,3.54-.47,3.14-3.74s-5-3.26,1.43-13.26c0,0-.92-5,2.74-5,0,0-.91,4,.91,3,1.51-.82,3-6.4,7.59-10.57a17.36,17.36,0,0,1,3.39-2.43,20.6,20.6,0,0,0,4.66-3.36,8.32,8.32,0,0,0,.59-.62l-4.94-4.32-4.75-4.15Z"/><path class="cls-3" d="M383.7,134.33v0c-.05.51-.12,1-.19,1.54l-.17-.17c-.34-.33-1.18-1.17-2.33-2.27h0l-.55-.54c-1.38-1.32-3.11-2.92-4.88-4.49a55.91,55.91,0,0,0-7.06-5.53s-7-3.16-14.55-6.27h0c-8.35-3.43-17.38-6.78-18.43-5.73-.36.36-1.16,1.42-2.41,3a105.49,105.49,0,0,1-13.52,14.05,81.1,81.1,0,0,1-31.07,17s-29,4-45-9c0,0-26.38-14.83-36.26-17.62a12.85,12.85,0,0,1-3.37-1.48c-3.8-2.4-13.86-7.9-26.37-7.9a47.43,47.43,0,0,0-13.2,3c-9.22,3.43-21.51,10.66-30.8,26,0,0-10,14-7,25,0,0,2,3,12-1,7.19-2.88,22.64-11.43,30.76-16l1.09-.61,1.39-.79,2.68-1.53c-.27.19-1.21.85-2.66,1.83l-1.34.9-1.41,1c-8.59,5.69-25.17,16.11-34.51,18.27,0,0-12,2-14-5,0,0-6-13,15-37,0,0,8.62-8.62,16.73-13.68l0,0h0a35.33,35.33,0,0,1,4.22-2.28s2.8-1.56,6.33-3.1a38.93,38.93,0,0,1,8.67-2.9s9-2,11-1c0,0,4.43-2.14,10-4.74h0c8.69-4.07,20.16-9.26,22-9.26,0,0,.75-4.51-31.63,8h0c-5,1.92-10.71,4.23-17.36,7l.06-.64.75-8.59.79-9s12.4-36.77,40.4-57.77,46-24,46-24,35.52-2,47.76,0c0,0,9.24,3,12.24,8,0,0,28,12,43,31C371.32,58.66,389.07,91.11,383.7,134.33Z"/><path class="cls-4" d="M193.5,99.89s11,2,13,4c0,0,28-17,33-18s-9-3-14-2C225.5,83.89,193.5,97.89,193.5,99.89Z"/><path class="cls-5" d="M298.5,1.89a13.43,13.43,0,0,1,7,8s3,2,7,11a104.69,104.69,0,0,1,7,32c1,18,1,48,1,48l6.2,3s1.8-15-1.2-39c0,0,.74-31-12.63-50,0,0-3.37-7-8.37-11s-6-2.32-6-2.32Z"/><path class="cls-5" d="M207,66.69c-3,.83-6.63,1.89-10.47,3"/><path class="cls-5" d="M212.83,65.15c.21-.06.42-.1.6-.14,3.24-.69,6.41-1.26,9.48-1.73"/><path class="cls-5" d="M239.22,61.39c-3.93.33-8.19.75-12.68,1.36"/><path class="cls-5" d="M201.5,60.24A89.55,89.55,0,0,0,195.11,68"/><path class="cls-5" d="M211.87,50.11c-2.3,2-4.59,4.18-6.81,6.4"/><path class="cls-5" d="M226.47,38.44c-3.1,2.25-6.58,4.91-10.17,7.88h0"/><line class="cls-5" x1="239.22" y1="61.39" x2="226.47" y2="38.44"/><line class="cls-5" x1="222.91" y1="63.28" x2="211.87" y2="50.11"/><polyline class="cls-5" points="226.54 62.75 216.3 46.33 216.3 46.32"/><path class="cls-6" d="M241.52,174.92l.37.52A1.79,1.79,0,0,0,241.52,174.92Zm12-7a.88.88,0,0,0,.1.34A3.37,3.37,0,0,0,253.5,167.89Zm54.74-6.57a2.23,2.23,0,0,0,.24-.4A1.83,1.83,0,0,0,308.24,161.32Zm2.26,4.57a3.49,3.49,0,0,1,1-2c-3-1-3-.44-3-.44a2.06,2.06,0,0,1-.26-2.12,2.48,2.48,0,0,1-4.74-1.44c-2-1-4,2-4,1a1,1,0,0,1,1-1c-1-1-4,0-4,0,0-1.88.88-1.11,1-1-1-2-3,3-5,2-.16,0-11,6-11,6,2-3,7.4-5.36,7.4-5.36-3.6-1.36-10.4,5.36-10.4,5.36-1,0,0-1,0-1,1-2,5-4,5-4-3,0-6,3-6,3-3,0-3.73.55-3.93.83,1.12-2.87,5.93-3.83,5.93-3.83,2-1-6,0-9,4s-3,1-3,1c0-3,1.84-2.38,1.84-2.38-2.16-2.37-5.84,3.38-7.84,3.38s1-2,1-3-1,0-2.64,3a3.6,3.6,0,0,1-4.36,2,3.74,3.74,0,0,1-1.89-1.63c.73,3-1.12,7.64-1.41,7.79s-1.7-3.16-1.7-3.16c0-4-2-4-2-4s0,2-1,2a1,1,0,0,1-1-1c-1,0,.4,3,.4,3a3.54,3.54,0,0,0-.65,3.41c-1.2-2.38-4.32-3.29-4.71-3.4,3,1,4,6,4,6a12.5,12.5,0,0,1-3.61-3.45c.11.23.08.45-.39.45h-2a11.25,11.25,0,0,1,5,4c-1,1-2,0-3,0s-3.63-1.76-4-2c2,2,7,5.76,7,5.76a4.28,4.28,0,0,1-2.81-1.53c2,2.75,5.81,2.75,5.81,2.75h.24s-2.24-1-.24-1,1,0,0-1,0-1,0-1c.92-2.75,3.51-.46,3.94-.06-.9-1,.06-2.94.06-2.94a3.55,3.55,0,0,0,3,2v-1s3,2,4,0,5-1,5-1c2-1,2,3,2,3,1-4,6-3,6-3,1-2,4.5-2.66,4.5-2.66,1.5-3.66,4.5-3.34,4.5-3.34a3.53,3.53,0,0,0-1,4c2-4,7-4,7-4a6.78,6.78,0,0,0-4,4,12.76,12.76,0,0,1,3-2c2-1,7-1,7-1a10.82,10.82,0,0,0-6,4c3-2,4,1,6-2s4-3,4-3c-2,1-2,4-2,4,4-5,6-4,6-4-2,1-2,2-2,2a4.38,4.38,0,0,0,3-1c5-5,7-3,7-3-2,0-3,3-3,3,2,0,1,0,5-2a7.1,7.1,0,0,0,4-6A4.83,4.83,0,0,0,310.5,165.89Zm-61.32,10c.32,0-1.68-3-.68-3,0,0,0-2,1-2s-1,1,0,2a14.39,14.39,0,0,1,2,3Zm8.76,0-2.44-2a9.37,9.37,0,0,0,2.24-1.57c0-.57.06-.91.2-.67s0,.43-.2.67C257.73,173.56,257.94,175.89,257.94,175.89Zm2.16,0v0c-.09,0-.07,0,0,0-.05-.32-.51-3.67.28-4.82,0-.12.09-.15.11-.15a.83.83,0,0,0-.11.15,5.06,5.06,0,0,0,.38,2.34C261.34,175.35,260.36,175.77,260.1,175.87Zm23.4-4c-1,2-.06-.24-.06-.24s3.06-4.76,5.06-4.76,2,1,2,1S284.5,169.89,283.5,171.89Z"/><line class="cls-5" x1="206.99" y1="66.69" x2="201.5" y2="60.24"/><line class="cls-5" x1="212.83" y1="65.15" x2="205.06" y2="56.51"/><line class="cls-5" x1="196.52" y1="69.71" x2="195.11" y2="68.02"/><path d="M270.86,169a12.58,12.58,0,0,1-2.65,4.43,26,26,0,0,1-3.71,3.48,26.08,26.08,0,0,0,3.42-3.71,12,12,0,0,0,2.22-4.38Z"/><path d="M275,167.89a4.84,4.84,0,0,1-.31,1.65,2.53,2.53,0,0,1-.55.71,3.66,3.66,0,0,0-.48.49,6.93,6.93,0,0,0-1.06,2.63,6,6,0,0,1-1.3,2.76,2.7,2.7,0,0,1-2.8.76,2.56,2.56,0,0,0,2.61-.93,5.54,5.54,0,0,0,1-2.69,7.57,7.57,0,0,1,.94-3,4.69,4.69,0,0,1,.51-.62,1.69,1.69,0,0,0,.33-.49,4.1,4.1,0,0,0,.11-1.3Z"/><path d="M297,161.89a4.84,4.84,0,0,1-.31,1.65,2.53,2.53,0,0,1-.55.71,3.66,3.66,0,0,0-.48.49,6.93,6.93,0,0,0-1.06,2.63,6,6,0,0,1-1.3,2.76,2.7,2.7,0,0,1-2.8.76,2.56,2.56,0,0,0,2.61-.93,5.54,5.54,0,0,0,1-2.69,7.57,7.57,0,0,1,.94-3,4.69,4.69,0,0,1,.51-.62,1.69,1.69,0,0,0,.33-.49,4.1,4.1,0,0,0,.11-1.3Z"/><path d="M301.72,165.34a11.07,11.07,0,0,0-1.24.63c-.4.21-.76.57-.72.68a1.31,1.31,0,0,0,.09.26.94.94,0,0,1,0,.6c-.18.43-.46.51-.67.67a3.25,3.25,0,0,0-.93.95,5.13,5.13,0,0,1-2.19,2,7.38,7.38,0,0,1-2.89.51,7.13,7.13,0,0,0,2.78-.74,4.65,4.65,0,0,0,1.88-2.06,3.79,3.79,0,0,1,1-1.2c.18-.13.37-.29.35-.34s0,0-.05-.11a1.62,1.62,0,0,1-.17-.42,1.21,1.21,0,0,1,.35-1,4.2,4.2,0,0,1,.61-.53,13.92,13.92,0,0,1,1.3-.81Z"/><path class="cls-6" d="M211.5,185.89s-4,0-.42-1,2.7,0,2.7,0c2.28-1-3.28-1-3.28-1-3-5-6-6-6-6a11.88,11.88,0,0,0,1.69,5.48c-4-6.43-9.72-5.48-10.69-5.48a43.31,43.31,0,0,0-5,1s3-3,1-2-6,1-5,0a8.12,8.12,0,0,1,1.06-1,8.1,8.1,0,0,0-5.06,2c-1,0-1-2-1-2-2.78.93-3.84,3.57-4.78,6.34h0c-.07.21-.15.43-.22.65-.71,2.12.09,2.26.61,2.17a2.48,2.48,0,0,0,.38-.12,5.27,5.27,0,0,0-.29.76h0a2.11,2.11,0,0,0,.3,2.18h0a4.25,4.25,0,0,1,1,2.53c0,.15,0,.3,0,.46a2.92,2.92,0,0,0,.41,1.49,3.57,3.57,0,0,0,.51.67h0a4.55,4.55,0,0,0,1.08.83c3,0,2-1,5-2s3-2,4-3,3,0,3,0c2-2,5,1,5,1,5-2,5,0,5,0,1-3,2-2,4-1s3,0,5,0,1-2,1-2c4,0,1,2,1,2C219.5,186.89,211.5,185.89,211.5,185.89Zm-7-3c-1-3-1,0-5.54-3-4.16-2.75-6.12-.46-6.42-.06,1-1.94,2-1.92,8.1.06S204.5,182.89,204.5,182.89Z"/><path d="M305.6,167.21c-.63.6-1.26,1.2-1.92,1.77a7.83,7.83,0,0,1-2.18,1.43,7.51,7.51,0,0,0,1.82-1.78c.53-.67,1-1.37,1.52-2.07Z"/><path d="M181.6,190.21c-.63.6-1.26,1.2-1.92,1.77a7.83,7.83,0,0,1-2.18,1.43,7.51,7.51,0,0,0,1.82-1.78c.53-.67,1-1.37,1.52-2.07Z"/><path d="M282.7,169a7.14,7.14,0,0,1-1.72,1.31,12.23,12.23,0,0,1-1.89.84,5.89,5.89,0,0,0-1.76.8,7.17,7.17,0,0,0-.62.77,8,8,0,0,1-.71.72,8.8,8.8,0,0,0,.61-.79,6.86,6.86,0,0,1,.54-.87,6.35,6.35,0,0,1,1.75-1.1,11.18,11.18,0,0,0,1.67-1,6.27,6.27,0,0,0,1.33-1.28Z"/><path d="M265.68,170.2a7,7,0,0,1-.56,2.09,11.83,11.83,0,0,1-1,1.83,5.76,5.76,0,0,0-.89,1.72,7.85,7.85,0,0,0,0,1,6.79,6.79,0,0,1-.12,1,6.68,6.68,0,0,0,0-1,6.5,6.5,0,0,1-.11-1,6.25,6.25,0,0,1,.71-1.94,11.15,11.15,0,0,0,.69-1.82,6.44,6.44,0,0,0,.27-1.83Z"/><path d="M187.68,183.2a7,7,0,0,1-.56,2.09,11.83,11.83,0,0,1-1,1.83,5.76,5.76,0,0,0-.89,1.72,7.85,7.85,0,0,0,0,1,6.79,6.79,0,0,1-.12,1,6.68,6.68,0,0,0,0-1,6.5,6.5,0,0,1-.11-1,6.25,6.25,0,0,1,.71-1.94,11.15,11.15,0,0,0,.69-1.82,6.44,6.44,0,0,0,.27-1.83Z"/><path d="M181.72,180.44a16.19,16.19,0,0,1,2.05,1.32,3.34,3.34,0,0,1,.48.45,1.17,1.17,0,0,1,.22.35.65.65,0,0,1,0,.53,1.08,1.08,0,0,1-.6.5l-.55.23c-.35.14-.68.32-.73.59s.2.66.32,1c.07.19.13.38.19.56s.15.27.35.35a11.7,11.7,0,0,1,1.06.54,11.3,11.3,0,0,0-1.1-.42,1.19,1.19,0,0,1-.29-.12.61.61,0,0,1-.19-.28c-.08-.18-.17-.36-.25-.53l-.28-.52a1.19,1.19,0,0,1-.19-.65c.07-.56.56-.8.89-1l.51-.28c.16-.08.3-.21.29-.24s0-.06-.15-.17a2.78,2.78,0,0,0-.41-.32,16.31,16.31,0,0,0-2.05-1Z"/><path d="M185.47,180.45a30.21,30.21,0,0,0,3.36,1.94l1.77.85a1.72,1.72,0,0,1,.77.67,2,2,0,0,1,.13,1,1.91,1.91,0,0,0-.24-.92,1.48,1.48,0,0,0-.76-.5l-1.86-.61a33.52,33.52,0,0,1-3.67-1.54Z"/><path d="M190.9,179.59a16.51,16.51,0,0,0,2.09,2.35,13.89,13.89,0,0,0,2.53,1.91,10.82,10.82,0,0,0,3,1.14,12.59,12.59,0,0,0,1.58.31c.27,0,.53,0,.81.07s.44.34.63.52c-.2-.17-.39-.41-.64-.46s-.54,0-.81,0a14.74,14.74,0,0,1-4.77-1.14,14,14,0,0,1-2.78-1.78,17.51,17.51,0,0,1-2.4-2.32Z"/><path d="M195.31,179.64l.14.18.24.24a6.2,6.2,0,0,0,.54.46c.38.3.78.58,1.19.85.83.54,1.69,1,2.56,1.52-.94-.33-1.87-.68-2.8-1.08-.46-.21-.91-.42-1.36-.66l-.67-.4-.34-.24a1.81,1.81,0,0,1-.36-.37Z"/><path class="cls-7" d="M203.5,121.89a21.41,21.41,0,0,1-10,2c-5,0-3,0-10-2s-7,3-11,8,1,9,1,9a7,7,0,0,0-1.76,5.58c0,.1,0,.2,0,.3a19.45,19.45,0,0,0,1.74,6.12c.2.82.38,1.61.52,2.39a35.38,35.38,0,0,1,.28,11.87s-.21-.07-.42-.54v0a5.83,5.83,0,0,1-.36-2v-.06a0,0,0,0,0,0,0c0-.2,0-.41,0-.64a7.07,7.07,0,0,0-.8-3.73h0a1.86,1.86,0,0,0-.2-.26c-1,2-1,1-1,1a3.7,3.7,0,0,1,.88-2.46,1.23,1.23,0,0,0,.12-.54,3.33,3.33,0,0,0-.51-1.59c-.39-.6-.94-1-1.49-.41a1.39,1.39,0,0,1-2,0c-4-3-1-2-1-2,3,0,1-1,0-1a3.49,3.49,0,0,1-2-1,5.55,5.55,0,0,0,3.49-3.22s0,0,0,0a5.07,5.07,0,0,0,.25-.75,7.78,7.78,0,0,0,.24-2c0-5-1-5-4-14a10.68,10.68,0,0,1-.36-5.43h0l1.12-1.62,1.65-2.38,0,0,8.28-9a16.83,16.83,0,0,0-3.52,2.15h0c-.22.16-.43.33-.65.51.49-.6,1-1.19,1.49-1.73a11.23,11.23,0,0,1,3-2.43c4-2,11,1,11,1,2-1,13,5,18,7S205.5,120.89,203.5,121.89Z"/><path class="cls-4" d="M214.5,85.89c-3,0-32,14-32,14-2-1-11,1-11,1-6,1-15,6-15,6a35.33,35.33,0,0,0-4.22,2.28c1.78-1.34,3.87-2.81,6.22-4.28,2.73-1.7,5.11-3.29,7.06-4.64l-.06.64C215.5,79.89,214.5,85.89,214.5,85.89Z"/><path class="cls-5" d="M152.23,109.21l0,0h0"/><circle class="cls-8" cx="6" cy="179.39" r="6"/><circle class="cls-9" cx="6" cy="196.39" r="6"/><circle class="cls-10" cx="6" cy="213.39" r="6"/><circle class="cls-11" cx="6" cy="230.39" r="6"/><path class="cls-12" d="M197.43,165.15c1.93,3.27-1.45,7.1-1.45,7.1-6.12-.61-7.46-1.87-7.61-2,1.88,3.32,9.12,4.66,4.13,3.79-.36-.06-.7-.13-1-.2-4.15-.88-5.18-2.17-5.18-2.17s.2-2.76-1.18-14S196,148.27,196,148.27c-5.5,1.38-3.5,5.62,0,7s7.24,9.86,7.24,9.86-5.72-5.26-8.34-4.82S197.43,165.15,197.43,165.15Z"/><circle class="cls-10" cx="233.5" cy="155.89" r="1"/><circle class="cls-10" cx="242.5" cy="139.89" r="1"/><circle class="cls-5" cx="348.5" cy="193.89" r="1"/><path class="cls-13" d="M315.36,175.89s-1.14,6-12,5.5-20.42-8.5-41.64,3.5c0,0-4.22,3.26-6.22,2.13,0,0-3.6,8.71-.8,11.29s4-.42,8.42,6.58,25.25,11,32.31,10.52,32.15-9,33.61-23.76S315.36,175.89,315.36,175.89Zm-2.86,6s.72-2,2.36-2,.64,2,3.64,3,4.42,0,4.42,0,7.74,4.26-2.34,4.13S312.5,181.89,312.5,181.89Zm9.16,16.42c-2.16,3.58-1.12,4.42-4.14,0,0,0-4.06.07-5,4.82s-4,7.76-6,6.76-3.28-4.51-3.14-6.76c0,0,4.46-8.68,9.3-7.46,0,0,8.52-8.78,9.18-5.78,0,0-3.7,3.62-2.52,6.31,0,0,2.7-3.48,5.94-2.4S323.82,194.73,321.66,198.31Z"/><g class="cls-14"><g class="cls-14"><g class="cls-15"><g class="cls-14"><path class="cls-16" d="M359.5,200.18v1.42h0v-1.42h0"/><path class="cls-17" d="M359.5,200.17v1.42s0-.07,0-.11v-1.41s0,.07,0,.1"/><path class="cls-18" d="M359.51,200.07v1.41a.76.76,0,0,1,0-.11V200a.36.36,0,0,0,0,.11"/><path class="cls-19" d="M359.55,200v1.41l.1-.15v-1.41l-.1.15"/><path class="cls-20" d="M359.65,199.81v1.41a1,1,0,0,1,.28-.21V199.6a1,1,0,0,0-.28.21"/><path class="cls-19" d="M359.93,199.6V201l.2-.07v-1.42l-.2.08"/><path class="cls-18" d="M360.13,199.52v1.42l.15,0v-1.41l-.15,0"/><path class="cls-17" d="M360.28,199.49v1.41h.14v-1.42l-.14,0"/><path class="cls-16" d="M360.42,199.47v1.42h.08v-1.42h-.08"/></g></g></g><g class="cls-14"><g class="cls-21"><g class="cls-14"><path class="cls-16" d="M360.5,199.47v1.42h.06v-1.42h-.06"/><path class="cls-22" d="M360.56,199.47v1.42h.14v-1.41l-.14,0"/><path class="cls-23" d="M360.7,199.49v1.41l.16,0v-1.42a.76.76,0,0,0-.16,0"/><path class="cls-24" d="M360.86,199.52v1.42a.77.77,0,0,1,.64.66v-1.42c0-.3-.27-.55-.64-.66"/></g></g></g><g class="cls-14"><g class="cls-25"><g class="cls-14"><path class="cls-16" d="M361.5,200.18v1.42h0v-1.43"/><path class="cls-17" d="M361.5,200.2v1.41s0,.07,0,.1V200.3s0-.07,0-.1"/><path class="cls-18" d="M361.49,200.3v1.41s0,.07,0,.11V200.4l0-.1"/><path class="cls-19" d="M361.45,200.4v1.42l-.1.15v-1.42a.56.56,0,0,0,.1-.15"/><path class="cls-20" d="M361.35,200.55V202a1,1,0,0,1-.28.21v-1.42a.74.74,0,0,0,.28-.21"/><path class="cls-19" d="M361.07,200.76v1.42l-.2.08v-1.42l.2-.08"/><path class="cls-18" d="M360.87,200.84v1.42l-.16,0v-1.42a.76.76,0,0,0,.16,0"/><path class="cls-17" d="M360.71,200.87v1.42h-.13v-1.41l.13,0"/><path class="cls-16" d="M360.58,200.89v1.41h-.14v-1.41h.14"/><path class="cls-22" d="M360.44,200.89v1.41h-.14v-1.41h.14"/><path class="cls-23" d="M360.3,200.88v1.41l-.17,0v-1.42l.17,0"/><path class="cls-24" d="M360.13,200.84v1.42c-.37-.11-.63-.36-.63-.66v-1.42a.76.76,0,0,0,.63.66"/></g></g></g></g><g class="cls-14"><g class="cls-14"><g class="cls-26"><g class="cls-14"><path d="M347.38,176.18v0h0"/><path d="M347.38,176.17v1.41a.41.41,0,0,1,0-.11v-1.41a.37.37,0,0,0,0,.11"/><path d="M347.39,176.06v1.41s0-.08,0-.12v-1.42s0,.08,0,.13"/><path d="M347.43,175.93v1.42a1,1,0,0,1,.11-.17v-1.41a.91.91,0,0,0-.11.16"/><path d="M347.54,175.77v1.41a1,1,0,0,1,.32-.23v-1.42a.87.87,0,0,0-.32.24"/><path d="M347.86,175.53V177a.79.79,0,0,1,.23-.09v-1.42l-.23.09"/><path d="M348.09,175.44v1.42l.17,0v-1.41l-.17,0"/><path d="M348.26,175.41v1.41l.15,0v-1.41l-.15,0"/><path d="M348.41,175.39v1.41h.09v-1.41h-.09"/></g></g></g><g class="cls-14"><g class="cls-27"><g class="cls-14"><path d="M348.5,175.39v1.41h.07v-1.41h-.07"/><path d="M348.57,175.39v1.41l.16,0V175.4h-.16"/><path d="M348.73,175.4v1.42l.19,0v-1.42l-.19,0"/><path d="M348.92,175.44v1.42a.85.85,0,0,1,.71.74v-1.42a.87.87,0,0,0-.71-.74"/></g></g></g><g class="cls-14"><g class="cls-28"><g class="cls-14"><path d="M349.38,176.18v1.42a.67.67,0,0,0-.56-.58v-1.41c.32.09.56.31.56.57"/><path d="M348.82,175.61V177l-.14,0v-1.41l.14,0"/><path d="M348.68,175.58V177h-.12v-1.41h.12"/><path d="M348.56,175.57V177h-.13v-1.41h.13"/><path d="M348.43,175.57V177h-.12v-1.41h.12"/><path d="M348.31,175.58V177l-.14,0v-1.41l.14,0"/><path d="M348.17,175.61V177l-.17.07v-1.41l.17-.07"/><path d="M348,175.68v1.41a.76.76,0,0,0-.24.18v-1.41a.63.63,0,0,1,.24-.18"/><path d="M347.76,175.86v1.41a.38.38,0,0,0-.09.13V176a.38.38,0,0,1,.09-.13"/><path d="M347.67,176v1.41l0,.1v-1.42l0-.09"/><path d="M347.64,176.08v1.42a.25.25,0,0,0,0,.09v-1.42a.28.28,0,0,1,0-.09"/><path d="M347.63,176.17v1.42h0v-1.42h0"/></g></g></g><g class="cls-14"><g class="cls-29"><g class="cls-14"><path d="M348.5,176.8v1.41h.07V176.8h-.07"/><path d="M348.57,176.8v1.41h.12v-1.41h-.12"/><path d="M348.69,176.79v1.41l.13,0v-1.41l-.13,0"/><path d="M348.82,176.76v1.41l.18-.07v-1.41l-.18.07"/><path d="M349,176.69v1.41a.94.94,0,0,0,.25-.18V176.5a.79.79,0,0,1-.25.19"/><path d="M349.25,176.5v1.42l.08-.13v-1.42a.57.57,0,0,1-.08.13"/><path d="M349.33,176.37v1.42a.17.17,0,0,0,0-.1v-1.41a.16.16,0,0,1,0,.09"/><path d="M349.36,176.28v1.41a.19.19,0,0,0,0-.08v-1.42a.28.28,0,0,1,0,.09"/><polyline points="349.38 176.19 349.38 177.61 349.38 177.6 349.38 176.18 349.38 176.19"/></g></g></g><g class="cls-14"><g class="cls-30"><g class="cls-14"><path d="M347.63,176.18v1.42a.66.66,0,0,0,.55.57v-1.41a.67.67,0,0,1-.55-.58"/><path d="M348.18,176.76v1.41l.14,0v-1.41l-.14,0"/><path d="M348.32,176.79v1.41h.13V176.8h-.13"/><path d="M348.45,176.8v1.41h.05V176.8h-.05"/></g></g></g><g class="cls-14"><g class="cls-31"><g class="cls-14"><path d="M349.63,176.18v1.42h0v-1.43"/><path d="M349.63,176.2v1.41a.36.36,0,0,1,0,.11v-1.41a.43.43,0,0,0,0-.11"/><path d="M349.61,176.31v1.41a.5.5,0,0,1,0,.13v-1.42a.56.56,0,0,0,0-.12"/><path d="M349.57,176.43v1.42a.57.57,0,0,1-.11.16V176.6a.62.62,0,0,0,.11-.17"/><path d="M349.46,176.6V178a.92.92,0,0,1-.31.24v-1.42a1,1,0,0,0,.31-.23"/><path d="M349.15,176.83v1.42l-.23.09v-1.42a.92.92,0,0,0,.23-.09"/><path d="M348.92,176.92v1.42l-.17,0V177l.17,0"/><path d="M348.75,177v1.41l-.16,0V177l.16,0"/><path d="M348.59,177v1.41h-.16V177h.16"/><path d="M348.43,177v1.41h-.16V177l.16,0"/><path d="M348.27,177v1.42l-.18,0v-1.42l.18,0"/><path d="M348.09,176.92v1.42a.86.86,0,0,1-.71-.74v-1.42a.84.84,0,0,0,.71.74"/></g></g></g></g><path class="cls-32" d="M264,191.7a2.36,2.36,0,0,1,.29-2.24c1-1.45,4.08-3.06,13.25-2.57,10.05.55,11.32,0,12.44-.55a7,7,0,0,1,3.49-.58c6,0,8.42,0,11.68-1l.08.24c-3.3,1-5.78,1-11.76,1a6.53,6.53,0,0,0-3.38.56c-1.15.53-2.45,1.13-12.57.57-9-.49-12.07,1.07-13,2.46a2.11,2.11,0,0,0-.27,2Z"/><path class="cls-32" d="M303.31,187.8l8-1.91-7.92,2.4a.25.25,0,0,1-.15-.48h.05Z"/><path class="cls-32" d="M267.26,198.1c2.06,1.39,4.18,2.71,6.37,3.9,1.09.59,2.2,1.16,3.34,1.66a21.09,21.09,0,0,0,3.53,1.23,19.46,19.46,0,0,1-3.57-1.12c-1.17-.46-2.3-1-3.42-1.55-2.23-1.13-4.4-2.37-6.53-3.7a.26.26,0,0,1-.08-.35.27.27,0,0,1,.35-.08h0Z"/><path class="cls-32" d="M272.3,200.08a18.17,18.17,0,0,0,5.5,2.25,24.8,24.8,0,0,0,5.95.67,27.91,27.91,0,0,0,6-.78c1-.19,1.93-.56,2.9-.83s1.87-.74,2.81-1.1c-.93.38-1.85.8-2.79,1.16s-1.9.68-2.89.89a28.82,28.82,0,0,1-6,.91,25.12,25.12,0,0,1-6.05-.56,18.32,18.32,0,0,1-5.69-2.2.24.24,0,0,1-.08-.34.24.24,0,0,1,.34-.08h0Z"/><path class="cls-32" d="M264.58,201.54a50.41,50.41,0,0,0,6.8,4.27,60,60,0,0,0,7.2,3.4,38.68,38.68,0,0,0,3.85,1.13c.65.15,1.3.34,2,.45l2,.34c.66.13,1.33.2,2,.27l2,.21c1.35.09,2.71.11,4.08.18v.2c-1.36.09-2.73.2-4.1.24l-2.06,0a20.15,20.15,0,0,1-2.06-.09l-2.06-.19c-.69-.06-1.37-.21-2.05-.32-1.38-.18-2.72-.56-4.07-.87a28,28,0,0,1-7.74-3.21,18.31,18.31,0,0,1-5.94-5.87Z"/><path class="cls-12" d="M273.23,195.53s-8.42,6.69-9.42.32,4.68-6.52,4.68-6.52S263.14,190.68,273.23,195.53Z"/><path class="cls-33" d="M268.5,193.89s-5.44-6,5.28-4c0,0,13.44-1.68,23.58-1.84s-4.86,5.36-6.86,8.1c0,0-10,5-16,2.88S268.5,193.89,268.5,193.89Z"/><path class="cls-32" d="M284.11,204.67a20.81,20.81,0,0,0,6,2.24,16.38,16.38,0,0,0,3.2.32,12.87,12.87,0,0,0,3.2-.45,12.72,12.72,0,0,1-3.19.57,16,16,0,0,1-3.25-.19,21.43,21.43,0,0,1-6.2-2,.26.26,0,0,1-.11-.34.26.26,0,0,1,.34-.11h0Z"/><path class="cls-12" d="M293.5,197.59s4.08,3.17,13-6.76C306.54,190.83,304.5,188.29,293.5,197.59Z"/><path class="cls-34" d="M278,190.09a5.58,5.58,0,0,0-1.49-.2,4.53,4.53,0,1,0,0,9,5.47,5.47,0,0,0,2-.37,4.53,4.53,0,0,0,3-4.13A4.59,4.59,0,0,0,278,190.09Zm-4.49,3.8c0-.55.9-1,2-1a2.27,2.27,0,0,1,1.92.73.56.56,0,0,1,.08.27.57.57,0,0,1-.08.28,2.32,2.32,0,0,1-1.92.72C274.4,194.89,273.5,194.44,273.5,193.89Z"/><path class="cls-35" d="M277.5,193.89a.57.57,0,0,1-.08.28,2.32,2.32,0,0,1-1.92.72c-1.1,0-2-.45-2-1s.9-1,2-1a2.27,2.27,0,0,1,1.92.73A.56.56,0,0,1,277.5,193.89Z"/><path class="cls-36" d="M277.5,193.89a.57.57,0,0,1-.08.28,2.32,2.32,0,0,1-1.92.72c-1.1,0-2-.45-2-1s.9-1,2-1a2.27,2.27,0,0,1,1.92.73A.56.56,0,0,1,277.5,193.89Z"/><path class="cls-37" d="M277.42,193.62a.56.56,0,0,1,.08.27.57.57,0,0,1-.08.28A5,5,0,0,0,277.42,193.62Z"/><path class="cls-38" d="M293.39,192.74s-6.39,4.48-8.95,4.48c0,0-3.5.88-5.94,1.3a4.53,4.53,0,0,0,3-4.13,4.59,4.59,0,0,0-3.51-4.3c5.28,0,17.25-.22,19.23-1C299.78,188.07,298.5,191.32,293.39,192.74Z"/><path d="M270.49,190.5a1.53,1.53,0,0,0,.57-1c0-.39,0-.77.1-1.19h0a1.57,1.57,0,0,1,.07,1.24,1.54,1.54,0,0,1-.74,1Z"/><path d="M269.49,190.5a1.18,1.18,0,0,0,.55-.7c0-.3.06-.57.12-.91h0a.93.93,0,0,1,.05,1,1.18,1.18,0,0,1-.72.65Z"/><path d="M269,190.17a1.74,1.74,0,0,0,1.08-.63c.25-.34.45-.7.73-1.06h0a1.75,1.75,0,0,1-.61,1.19,1.63,1.63,0,0,1-1.21.51Z"/><path d="M269.5,189.88a5,5,0,0,0,1.17-.27,2.32,2.32,0,0,0,.49-.28.89.89,0,0,0,.33-.44h0a.62.62,0,0,1-.19.62,1.27,1.27,0,0,1-.58.29,3.72,3.72,0,0,1-1.24.1Z"/><path d="M267.5,189.88a5,5,0,0,0,1.17-.27,2.32,2.32,0,0,0,.49-.28.89.89,0,0,0,.33-.44h0a.62.62,0,0,1-.19.62,1.27,1.27,0,0,1-.58.29,3.72,3.72,0,0,1-1.24.1Z"/><path d="M271,190.38c.14-.19.29-.38.44-.56a1,1,0,0,1,.56-.44l0,0a1,1,0,0,1-.44.56l-.56.44Z"/><path d="M272,190.39a2.69,2.69,0,0,0,.67-1.28l.24.06A2.87,2.87,0,0,1,272,190.39Z"/><path d="M272.5,190.89a2.54,2.54,0,0,0,.88-1.88h.24A2.62,2.62,0,0,1,272.5,190.89Z"/><path class="cls-39" d="M291.5,267.89,283.05,270l-1.06.27-8.07,2.05-15.52,3.93-13.77,3.49L232,283l-8.41,2.13-1.27-.25,2.22,4.87s0,0,0,0l1,2.13,2,2-3-1-2-2-2.24-3-1.49-2.62h-1l-.48-2.18-.72-1.26s-4-7.32-2-10.13,3-6.81,2-8.81c0,0-1.11,2.24-2.56,1.12,0,0,6.56-4.12,8.56-8.12,0,0,0-4.6,2-5.8,0,0-1.84,2.36,1.58,4.08,0,0,5.42-4.2,6.42-3.24,0,0-2.72,2.4-.86,4.68s3.34,4.4,5.6,3.84c0,0,1.26-4.56,4.26-5.56a4.86,4.86,0,0,1,5,1.24l3.06-4s3.94.72,3.94,2.72,2.18-8.4,5.59-6.2,3.6-1.12,9,8c0,0-1.6,3.16.4,5.16s3-4,3-4,2-3,4,3c.55,1.66.88,2.78,1.05,3.54.13-1.94.55-4.94,1.95-3.54a3.53,3.53,0,0,1,1,4l3-2s1.76,2,.88,4c0,0,4.12-2,5.12-1l2.68,2.69.11.11.11.1h0l.06.06h0Z"/><path d="M272.5,189.89a1,1,0,0,0,.68-.33.89.89,0,0,0,.2-.67h.24a1.09,1.09,0,0,1-.35.76A1.17,1.17,0,0,1,272.5,189.89Z"/><path d="M273.5,189.89a1.36,1.36,0,0,0,.75-.3.75.75,0,0,0,.22-.69l.24,0a.92.92,0,0,1-.38.81A1.46,1.46,0,0,1,273.5,189.89Z"/><path d="M274.05,189.14a.57.57,0,0,1,.07.62.88.88,0,0,1-.62.25v-.25a.7.7,0,0,0,.52-.09C274.15,189.56,274.13,189.32,274.05,189.14Z"/><path d="M274.2,190.89a2,2,0,0,0,.88-.67,1.55,1.55,0,0,0,.3-1h.24a1.69,1.69,0,0,1-.44,1.1A2,2,0,0,1,274.2,190.89Z"/><path d="M275.36,190.9a3.23,3.23,0,0,1-.49-.25.83.83,0,0,1-.38-.44,2.27,2.27,0,0,1-.23-1.07h0a2.24,2.24,0,0,1,.39,1c.06.29.41.52.7.72Z"/><path d="M275.49,190.88a4.81,4.81,0,0,0,.6-1l.4-1h0a1.27,1.27,0,0,1-.25,1.13,4,4,0,0,1-.75.88Z"/><path d="M277,190.5a2.84,2.84,0,0,0,.27-.79,2.26,2.26,0,0,1,.21-.82h0a1.06,1.06,0,0,1,0,.87,2.43,2.43,0,0,1-.45.76Z"/><path d="M277.5,190.89a8.39,8.39,0,0,1-.54-1.18,3.53,3.53,0,0,1-.16-.64,1,1,0,0,1,.13-.71l.18.16a.79.79,0,0,0-.12.53,4.63,4.63,0,0,0,.09.62A8.79,8.79,0,0,0,277.5,190.89Z"/><path d="M278.25,190.5a7.79,7.79,0,0,0,1.3-.63c.19-.14.38-.28.55-.43a1.23,1.23,0,0,0,.39-.55h0a.79.79,0,0,1-.24.72,2,2,0,0,1-.62.43,6,6,0,0,1-1.4.48Z"/><path d="M278.25,190a2.52,2.52,0,0,0,1-1.85l.25,0A2.67,2.67,0,0,1,278.25,190Z"/><path d="M280.86,190.51a3.13,3.13,0,0,0,1.45-2.28h.25a2.49,2.49,0,0,1-.6,1.34A4.65,4.65,0,0,1,280.86,190.51Z"/><path d="M282.5,190.89a1.44,1.44,0,0,1-.86-.88,3.32,3.32,0,0,1-.26-1.24h.24a3.75,3.75,0,0,0,.13,1.2A1.41,1.41,0,0,0,282.5,190.89Z"/><path d="M284.5,189.9a1.35,1.35,0,0,1-.84-.2.73.73,0,0,1-.3-.37.66.66,0,0,1,.05-.46h0a2.15,2.15,0,0,0,.34.66,1.61,1.61,0,0,0,.72.34Z"/><path d="M285.5,189.89a1.24,1.24,0,0,1-.88-.6,1,1,0,0,1-.08-.57,2,2,0,0,1,.15-.54l.23.11a1.13,1.13,0,0,0-.18,1A1.16,1.16,0,0,0,285.5,189.89Z"/><path class="cls-5" d="M283.35,190.51"/><path d="M280,190.39a1.72,1.72,0,0,0,.74-1,2.09,2.09,0,0,0-.19-1.25l.23-.09a2.29,2.29,0,0,1,.08,1.37A1.78,1.78,0,0,1,280,190.39Z"/><path d="M283.5,190.89a1.88,1.88,0,0,1-1-1.24,2.59,2.59,0,0,1-.06-.83,4.59,4.59,0,0,1,.17-.82l.23.09a3.79,3.79,0,0,0-.21.75,2.55,2.55,0,0,0,0,.78A1.84,1.84,0,0,0,283.5,190.89Z"/><path d="M278,190.75a9.21,9.21,0,0,1-.18-1.57,3.18,3.18,0,0,1,.08-.81.73.73,0,0,1,.61-.61V188c-.2,0-.35.19-.43.42a2.62,2.62,0,0,0-.13.75A8.25,8.25,0,0,0,278,190.75Z"/><path d="M279.49,190.89q-.06-.75-.09-1.5a4.22,4.22,0,0,1,.09-1.5h0a4.22,4.22,0,0,1,.09,1.5q0,.75-.09,1.5Z"/><polygon points="284.5 190.89 283.63 188.14 283.87 188.08 284.5 190.89"/><path d="M286.5,190.89a3.42,3.42,0,0,1-.89-1.2,1.87,1.87,0,0,1,0-1.52l.22.13a1.63,1.63,0,0,0-.14,1.35A3.36,3.36,0,0,0,286.5,190.89Z"/><path d="M287.33,188.24a4.82,4.82,0,0,0-1.32.9,1.61,1.61,0,0,0-.56,1.35l-.25,0a1.77,1.77,0,0,1,.73-1.48A5,5,0,0,1,287.33,188.24Z"/><polygon points="287.5 190.89 288.43 188 288.67 188.09 287.5 190.89"/><path d="M286.49,189.88c.13-.35.27-.69.42-1a2.34,2.34,0,0,1,.58-1h0a2.34,2.34,0,0,1-.42,1c-.19.33-.38.65-.58,1Z"/><path d="M289.5,190.89a4.67,4.67,0,0,1-.49-1.52,1.89,1.89,0,0,1,.4-1.57l.18.18a1.72,1.72,0,0,0-.46,1.38A4.83,4.83,0,0,0,289.5,190.89Z"/><path d="M288.5,190.89a6.45,6.45,0,0,1,1.69-3.1l.16.2A6.23,6.23,0,0,0,288.5,190.89Z"/><path d="M290.49,190.88c.4-.46.78-.94,1.13-1.43.16-.26.33-.51.48-.76a3.3,3.3,0,0,0,.39-.8h0a1.56,1.56,0,0,1-.2.92,4.93,4.93,0,0,1-.53.76,13.3,13.3,0,0,1-1.27,1.33Z"/><path d="M290.26,189.18l.54-.91a2.15,2.15,0,0,1,.69-.81h0a2.21,2.21,0,0,1-.54.91c-.23.28-.45.55-.69.81Z"/><path d="M291.83,190.51a10.12,10.12,0,0,1-.85-1.21,3.91,3.91,0,0,1-.55-1.4l.25,0a3.81,3.81,0,0,0,.41,1.36A9.54,9.54,0,0,0,291.83,190.51Z"/><path d="M292.5,189.89a1.59,1.59,0,0,0,.95-.53,1.22,1.22,0,0,0,.16-1l.25,0a1.38,1.38,0,0,1-.32,1.14A1.61,1.61,0,0,1,292.5,189.89Z"/><path d="M294.5,189.89a1.17,1.17,0,0,1-.77-.24,1.09,1.09,0,0,1-.35-.76h.24a.89.89,0,0,0,.2.67A1,1,0,0,0,294.5,189.89Z"/><path d="M294.5,189.2a1.62,1.62,0,0,0,.67-.54,1.23,1.23,0,0,0,.21-.77h.24a1.31,1.31,0,0,1-.36.85A1.63,1.63,0,0,1,294.5,189.2Z"/><path d="M295.5,189.89a3.25,3.25,0,0,0,.88-2h.24A3.3,3.3,0,0,1,295.5,189.89Z"/><path d="M296.49,189.78a2.82,2.82,0,0,0,.91-2v-.09h.2v1.05a9.12,9.12,0,0,1-.11,1.15h0a9.12,9.12,0,0,1-.11-1.15v-1.05h.2v.09a2.14,2.14,0,0,1-.34,1.13,4,4,0,0,1-.75.88Z"/><polygon points="297.5 188.89 299.41 186.8 299.59 186.98 297.5 188.89"/><path d="M270.22,198.52a1.12,1.12,0,0,0,.81-.6,1.62,1.62,0,0,0,.07-1l.25,0a1.79,1.79,0,0,1-.21,1.09A1.15,1.15,0,0,1,270.22,198.52Z"/><polygon points="271.25 198.89 272.7 197.31 272.88 197.49 271.25 198.89"/><polygon points="280 200.67 277.93 199.63 278.05 199.41 280 200.67"/><polygon points="285.52 200.15 285.38 197.4 285.63 197.4 285.52 200.15"/><polygon points="286.32 200.1 286.65 196.66 286.89 196.69 286.32 200.1"/><polygon points="291.82 197.91 288.49 196 288.62 195.78 291.82 197.91"/><polygon points="293.76 195.39 292.4 193.97 292.6 193.81 293.76 195.39"/><polygon points="297.5 192.46 298.39 190.45 298.61 190.57 297.5 192.46"/><path d="M273.5,200.35c0,.05,0,.11.07.13s.09,0,.13,0a2.23,2.23,0,0,0,.19-.24,4.29,4.29,0,0,0,.31-.55c.1-.18.2-.37.31-.55a2.61,2.61,0,0,1,.17-.28l.12-.14a.2.2,0,0,1,.12-.07.15.15,0,0,1,.16.08.18.18,0,0,1,0,.1h-.24s0,0,0,0,.09.06.1.05,0,0,0,0l-.1.1-.19.24-.35.52a5.56,5.56,0,0,1-.37.52,1.15,1.15,0,0,1-.22.22c-.05,0-.1.07-.16,0A.15.15,0,0,1,273.5,200.35Z"/><path d="M276,200.39a3.8,3.8,0,0,0,.77-.54c.22-.2.4-.49.31-.72l.24-.07a.71.71,0,0,1-.12.54,1.45,1.45,0,0,1-.35.35A3.43,3.43,0,0,1,276,200.39Z"/><path d="M279,201.39a4.45,4.45,0,0,1,.47-1.5,2.39,2.39,0,0,1,1.14-1.12l.08.24a2.13,2.13,0,0,0-1.11,1A4.27,4.27,0,0,0,279,201.39Z"/><polygon points="281 200.39 281.38 198.31 281.62 198.37 281 200.39"/><path d="M284,201.39a5.84,5.84,0,0,1-.32-1.81,1.76,1.76,0,0,1,.83-1.64l.11.23a1.56,1.56,0,0,0-.81,1.42A5.5,5.5,0,0,0,284,201.39Z"/><path d="M290.27,199.1a12.51,12.51,0,0,1-1.14-.93,4.27,4.27,0,0,1-.5-.54c-.13-.2-.37-.45-.17-.81l.19.17c-.09.08,0,.34.13.53a4,4,0,0,0,.44.56A12.64,12.64,0,0,0,290.27,199.1Z"/><path d="M289.27,199.1a12.51,12.51,0,0,1-1.14-.93,4.27,4.27,0,0,1-.5-.54c-.13-.2-.37-.45-.17-.81l.19.17c-.09.08,0,.34.13.53a4,4,0,0,0,.44.56A12.64,12.64,0,0,0,289.27,199.1Z"/><path d="M292.5,195.67a8.62,8.62,0,0,1-1.13-.2,2.31,2.31,0,0,1-1.08-.5l.2-.16a2.14,2.14,0,0,0,.92.54A8,8,0,0,0,292.5,195.67Z"/><path d="M290.5,197.67a8.62,8.62,0,0,1-1.13-.2,2.31,2.31,0,0,1-1.08-.5l.2-.16a2.14,2.14,0,0,0,.92.54A8,8,0,0,0,290.5,197.67Z"/><path d="M295.5,193.67a8.62,8.62,0,0,1-1.13-.2,2.31,2.31,0,0,1-1.08-.5l.2-.16a2.14,2.14,0,0,0,.92.54A8,8,0,0,0,295.5,193.67Z"/><path class="cls-40" d="M297,193.89"/><path d="M294.9,193l-.1.07a.57.57,0,0,0,.2.14,3.68,3.68,0,0,0,.59.18c.4.1.82.17,1.23.23-.42,0-.84-.05-1.26-.11a3.61,3.61,0,0,1-.62-.13.57.57,0,0,1-.32-.19.21.21,0,0,1,0-.27.67.67,0,0,1,.15-.14Z"/><path class="cls-41" d="M215.61,203.38c1.19.31,3.78.85,4.26-.17s-.25-1.61-2.32-2.13a0,0,0,0,0,0,0Z"/><path class="cls-42" d="M193.63,203c0-.09,0-.17,0-.25h0a5.57,5.57,0,0,1-.08-.81l.77-.23h0"/><polyline class="cls-42" points="200.37 200.51 200.38 200.51 200.39 200.51 200.4 200.51"/><path class="cls-34" d="M202.37,203.89a4.13,4.13,0,0,1-3.51,3.9,14.9,14.9,0,0,1-3-1.29,4.37,4.37,0,0,1-1.73-1.77,6.37,6.37,0,0,1-.64-1.75v0a2.29,2.29,0,0,1,.08-.28c1.21-.22,2.24-.5,7.48-1.61A3.79,3.79,0,0,1,202.37,203.89Z"/><path class="cls-13" d="M199.44,190.83c-14.06-.07-16.94,3.06-17.94,3.79s1.83,9,1.83,9c4.83,20.73,17.17,19.27,17.17,19.27,24-5,24-26,24-26A58.28,58.28,0,0,0,199.44,190.83ZM193.63,203a2.29,2.29,0,0,1,.08-.28c1.2-.22,2.23-.5,7.37-1.59l.11,0,2-.42c3.69.76,8.31-.76,12.09-.06.88.16,1.62.32,2.25.49-1.2.32-2,1-2,1.81a1.17,1.17,0,0,0,.11.49l-.6-.17c-2.49,2.33-5.51,3.68-9.51,4.68a11.84,11.84,0,0,1-6.51-.1l-.06,0A14.9,14.9,0,0,1,196,206.5a4.37,4.37,0,0,1-1.73-1.77,6.37,6.37,0,0,1-.64-1.75Z"/><path class="cls-43" d="M215.5,202.89a1.17,1.17,0,0,0,.11.49l-.6-.17c-2.49,2.33-5.51,3.68-9.51,4.68a11.84,11.84,0,0,1-6.51-.1,4.13,4.13,0,0,0,3.51-3.9,3.79,3.79,0,0,0-1.31-2.82l2-.42c3.69.76,8.31-.76,12.09-.06.88.16,1.62.32,2.25.49C216.33,201.4,215.5,202.09,215.5,202.89Z"/><path d="M185.12,205.89a6.46,6.46,0,0,0,4-.85,3.77,3.77,0,0,0,1.33-1.42,5.33,5.33,0,0,0,.6-1.83l1,.2a6.28,6.28,0,0,1-1,2,4.46,4.46,0,0,1-1.71,1.43A6.67,6.67,0,0,1,185.12,205.89Z"/><path d="M187,208.29a5.21,5.21,0,0,0,2-1,7.38,7.38,0,0,0,1.52-1.59,9.13,9.13,0,0,0,1.06-1.91c.15-.33.26-.68.39-1l.29-1.06,1,.29-.44,1.08c-.17.35-.33.7-.52,1a11.08,11.08,0,0,1-1.35,1.9,8.1,8.1,0,0,1-1.77,1.48A5.45,5.45,0,0,1,187,208.29Z"/><path d="M189,206a21.88,21.88,0,0,0,1.89-2.42,9.82,9.82,0,0,0,1.33-2.62l.94.34a10.62,10.62,0,0,1-1.88,2.6A23.73,23.73,0,0,1,189,206Z"/><path class="cls-12" d="M194.76,206.87s4.74,5,9.74,3c0,0,8-1,10-4s7,1-2,8S192,209.85,194.76,206.87Z"/><path d="M189.83,208.29a9.38,9.38,0,0,0,2.39-2.9,6.85,6.85,0,0,0,.63-1.72,6.31,6.31,0,0,0,.15-1.78h1a7.08,7.08,0,0,1-.43,2,7.3,7.3,0,0,1-.93,1.77A9.67,9.67,0,0,1,189.83,208.29Z"/><path d="M187.69,205.49a1.76,1.76,0,0,0,.41-.67c.09-.25.18-.49.27-.75.16-.51.3-1,.44-1.54l.92.4c-.3.46-.6.92-.92,1.37-.16.22-.33.44-.5.65A1.69,1.69,0,0,1,187.69,205.49Z"/><path class="cls-12" d="M219.39,201.26c-.1,0-.4-.18-.89-.35-2-.7-7.14-2-15.31-.26l-2,.42c-5.24,1.11-6.27,1.39-7.48,1.61l-.13,0h0l-.14,0-1.09.17-.73.11h0l-.47.07-.64.09s-2.65.5-3.32-1.89c0,0-1-.69,1.18-.54s9.14-.85,10.14-1.85,15-2.15,20.45,2A5.37,5.37,0,0,1,219.39,201.26Z"/><path class="cls-42" d="M194.27,201.66h0"/><polyline class="cls-42" points="200.37 200.51 200.38 200.51 200.39 200.51 200.4 200.51"/><path d="M199.5,203.89a.57.57,0,0,1-.08.28,2.32,2.32,0,0,1-1.92.72c-1.1,0-2-.45-2-1s.9-1,2-1a2.27,2.27,0,0,1,1.92.73A.56.56,0,0,1,199.5,203.89Z"/><path class="cls-40" d="M199.5,203.89a.57.57,0,0,1-.08.28,2.32,2.32,0,0,1-1.92.72c-1.1,0-2-.45-2-1s.9-1,2-1a2.27,2.27,0,0,1,1.92.73A.56.56,0,0,1,199.5,203.89Z"/><path d="M199.5,203.89a.57.57,0,0,1-.08.28,2.32,2.32,0,0,1-1.92.72c-1.1,0-2-.45-2-1s.9-1,2-1a2.27,2.27,0,0,1,1.92.73A.56.56,0,0,1,199.5,203.89Z"/><path d="M199.5,203.89a.57.57,0,0,1-.08.28,2.32,2.32,0,0,1-1.92.72c-1.1,0-2-.45-2-1s.9-1,2-1a2.27,2.27,0,0,1,1.92.73A.56.56,0,0,1,199.5,203.89Z"/><path d="M199.5,203.89a.57.57,0,0,1-.08.28,2.32,2.32,0,0,1-1.92.72c-1.1,0-2-.45-2-1s.9-1,2-1a2.27,2.27,0,0,1,1.92.73A.56.56,0,0,1,199.5,203.89Z"/><path d="M199.5,203.89a.57.57,0,0,1-.08.28,2.32,2.32,0,0,1-1.92.72c-1.1,0-2-.45-2-1s.9-1,2-1a2.27,2.27,0,0,1,1.92.73A.56.56,0,0,1,199.5,203.89Z"/><path d="M199.5,203.89a.57.57,0,0,1-.08.28,2.32,2.32,0,0,1-1.92.72c-1.1,0-2-.45-2-1s.9-1,2-1a2.27,2.27,0,0,1,1.92.73A.56.56,0,0,1,199.5,203.89Z"/><path d="M199.5,203.89a.57.57,0,0,1-.08.28,2.32,2.32,0,0,1-1.92.72c-1.1,0-2-.45-2-1s.9-1,2-1a2.27,2.27,0,0,1,1.92.73A.56.56,0,0,1,199.5,203.89Z"/><path d="M199.5,203.89a.57.57,0,0,1-.08.28,2.32,2.32,0,0,1-1.92.72c-1.1,0-2-.45-2-1s.9-1,2-1a2.27,2.27,0,0,1,1.92.73A.56.56,0,0,1,199.5,203.89Z"/><path d="M199.5,203.89a.57.57,0,0,1-.08.28,2.32,2.32,0,0,1-1.92.72c-1.1,0-2-.45-2-1s.9-1,2-1a2.27,2.27,0,0,1,1.92.73A.56.56,0,0,1,199.5,203.89Z"/><path d="M199.5,203.89a.57.57,0,0,1-.08.28,2.32,2.32,0,0,1-1.92.72c-1.1,0-2-.45-2-1s.9-1,2-1a2.27,2.27,0,0,1,1.92.73A.56.56,0,0,1,199.5,203.89Z"/><path class="cls-12" d="M220.06,203.62a10.15,10.15,0,0,1-.14,2.58c-.06.43-.19.85-.28,1.27l-.41,1.24a13.12,13.12,0,0,1-2.83,4.36,15.18,15.18,0,0,1-4.08,3.15,17.39,17.39,0,0,1-2.35,1c-.8.29-1.65.46-2.46.7l0-.1c.79-.3,1.6-.53,2.37-.87a18,18,0,0,0,2.21-1.19,14.48,14.48,0,0,0,3.73-3.24,19.13,19.13,0,0,0,2.51-4.22,26.41,26.41,0,0,0,1.65-4.7Z"/><path class="cls-44" d="M217.54,205.92a23.15,23.15,0,0,1-2.82,3.55,30.15,30.15,0,0,1-3.41,3,39.75,39.75,0,0,1-3.7,2.61,19,19,0,0,1-4.09,1.9l0-.1a18.18,18.18,0,0,0,3.85-2.22,35.86,35.86,0,0,0,3.46-2.8c1.11-1,2.13-2.08,3.24-3.07s2.23-2,3.43-2.89Z"/><path class="cls-42" d="M217.53,201.08a0,0,0,0,1,0,0"/><path class="cls-5" d="M362.64,157.26c-.15.54-.29,1.08-.41,1.62A5.25,5.25,0,0,1,362.64,157.26Z"/><circle class="cls-5" cx="360.5" cy="200.89" r="1"/><path class="cls-5" d="M377.1,175.89c-.4,9-6.6,7-6.6,7l.84-3a8.94,8.94,0,0,1-.76-.79c-2-2.23,0-2.4.92-4.21.71-1.41-.92-3.36-1.93-4.38-.43-.43-.75-.7-.75-.7a24.71,24.71,0,0,1,1.68-6.24A12.9,12.9,0,0,1,377.1,175.89Z"/><path class="cls-5" d="M390.78,173.32c.28,1.44-2.16,4.57-2.16,4.57.12,2-2.12,6-3.94,7s-1.46,4.22-1.46,4.22-6.72-4.22-5-5.65,2.32-9.57,3.24-13.05-9.92-10.52-9.92-10.52c1-9,6-10,10.5-14s4.5-1,7.5,0,3,9,3,10a31.79,31.79,0,0,1-1.7,6C390.1,163.89,390.5,171.89,390.78,173.32Z"/><path class="cls-5" d="M390.78,173.32c.28,1.44-2.16,4.57-2.16,4.57.12,2-2.12,6-3.94,7s-1.46,4.22-1.46,4.22-6.72-4.22-5-5.65,2.32-9.57,3.24-13.05-9.92-10.52-9.92-10.52c1-9,6-10,10.5-14s4.5-1,7.5,0,3,9,3,10a31.79,31.79,0,0,1-1.7,6C390.1,163.89,390.5,171.89,390.78,173.32Z"/><path class="cls-5" d="M383.58,149.52s-4.85-1.19-6.46,5.59c0,0,6.75,4.14,7.56,8.46s.7,13.21.7,13.21S391.66,158.15,383.58,149.52Z"/><path class="cls-5" d="M377.1,175.89c-.4,9-6.6,7-6.6,7l.84-3a8.94,8.94,0,0,1-.76-.79c-2-2.23,0-2.4.92-4.21.71-1.41-.92-3.36-1.93-4.38-.43-.43-.75-.7-.75-.7a24.71,24.71,0,0,1,1.68-6.24A12.9,12.9,0,0,1,377.1,175.89Z"/><path class="cls-5" d="M369.57,170.51c.09-1,.34-2.21.93-1.62,1,1,5.84,5.79,3.42,7.89a14.52,14.52,0,0,1-3.34,2.32"/><path class="cls-5" d="M395.28,150.89s-2.78-5.4-2.78-8.2c0,0-3.05-6.46-9.63-5.21-2.7.51-6,2.32-9.9,6.39-1.72,1.79-3.17,3.38-4.39,4.8-3.63,4.21-5.25,6.88-5.93,8.55v0c-.15.54-.29,1.08-.41,1.62v0c-.05.77.27,1,.27,1L361.45,164a46.49,46.49,0,0,0,.05,8.89s-.36,2.76,2.82,11.88a15.41,15.41,0,0,0-1.08,10.12,146.31,146.31,0,0,1,1.6,14.67l2.43-2.17,1.19-1.07.36-.32a11.78,11.78,0,0,0,3.83.71c3.45.11,8.52-1.15,12-8.19,5.82-11.63,5.42-14.63,8.62-20.63,0,0,1.24-7.91.72-11.45A29.37,29.37,0,0,0,395.28,150.89Zm-24.78,32,.84-3a8.94,8.94,0,0,1-.76-.79c-2-2.23,0-2.4.92-4.21.71-1.41-.92-3.36-1.93-4.38-.43-.43-.75-.7-.75-.7a24.71,24.71,0,0,1,1.68-6.24,12.9,12.9,0,0,1,6.6,12.32C376.7,184.89,370.5,182.89,370.5,182.89Zm20.28-9.57c.28,1.44-2.16,4.57-2.16,4.57.12,2-2.12,6-3.94,7s-1.46,4.22-1.46,4.22-6.72-4.22-5-5.65,2.32-9.57,3.24-13.05-9.92-10.52-9.92-10.52c1-9,6-10,10.5-14s4.5-1,7.5,0,3,9,3,10a31.79,31.79,0,0,1-1.7,6C390.1,163.89,390.5,171.89,390.78,173.32Z"/><path class="cls-10" d="M409.5,273.89c-1,28-7,33-20,49s-43.25,30.76-43.25,30.76c-12.26,6.76-48.75,0-48.75,0C285.5,353.41,258,340,258,340l-16.1-21.6c.52.38,1,.74,1.56,1.09l0,0c11.87,7.89,24.26,8,34,6-.79.48-.67.85,1,1,3.45.29,10.07-1.31,16.6-3.61,1.33-.46,2.66-.95,3.95-1.46,1.85-.74,3.64-1.51,5.29-2.29a36,36,0,0,0,7.16-4.22c6-5,16-16,19.16-17.84s3.84-2.16,4.84-5.16,6-6,8.48-8,4.52-8,7.56-12.77,2-6.23,4-8.23,2-6,2-6l2-2.06s3-4.94,5.18-14.47a52.14,52.14,0,0,0,.86-9.64c.13-6.43-.21-14.33-.7-21.16l2.43-2.17,1.19-1.07.36-.32a11.78,11.78,0,0,0,3.83.71l.32.66s3.53,23.52,2.16,27.48,4.37,27,4.37,27C385.5,272.89,409.5,273.89,409.5,273.89Z"/><path class="cls-5" d="M287,320.89s-29.5,8-31.5,0c0,0-7.57-5.8-7.28-14.4s15-8.64,18.64-6.12S287,320.89,287,320.89Z"/><path class="cls-5" d="M317.49,297.9c-.11.3-2,5-3,6a1.39,1.39,0,0,0-2,0c-1,1-1,3-2,2,0,0,0-5,2-6S314.5,300.89,317.49,297.9Z"/><path class="cls-5" d="M328.5,291.89s0,1.26-2.5,2.63-2.5,2.65-2.5,2.65-2-1.28,0-2.28c0,0,3-6,3-4S328.5,291.89,328.5,291.89Z"/><path class="cls-5" d="M335.38,286.69v0Z"/><path class="cls-5" d="M336.5,282.89c-.92.92-1.09,3.35-1.12,3.74a2.43,2.43,0,0,0-.88-1.74,2.07,2.07,0,0,1,0-3c.92-.92.15-2.67,0-3C334.81,279.21,337.45,281.94,336.5,282.89Z"/><path class="cls-5" d="M345.62,265.72a.86.86,0,0,1-1.12-.83c2-2,1,1,2,1s0,3-1,2-.59-1,.21-1S346.73,265.55,345.62,265.72Z"/><path class="cls-5" d="M348.5,267.89c-1,2,0,1-1,3s-1-2-1-2l1-1c1-1,0-1,2-2S349.5,265.89,348.5,267.89Z"/><path class="cls-5" d="M357.5,248.89a8.22,8.22,0,0,1-2.18,6c-1.82,2-.82,5.2-1.82,5.1s.06-5.1.06-5.1h-.06a5.55,5.55,0,0,0,2-3C356.5,248.89,357.5,246.89,357.5,248.89Z"/><path class="cls-5" d="M359.5,244.89s0-2.34-1-1.67-1,.18-1,.18a4,4,0,0,1-1-4.51c1-3,0-2.7,1-.35s2,3.35,3,3.35S359.5,244.89,359.5,244.89Z"/><circle class="cls-5" cx="360.5" cy="200.89" r="1"/><path class="cls-5" d="M360.78,229.54a8.67,8.67,0,0,0,1.72,4.35c-1,4-2,1-2-1s-1-1-2-2,0-2,1-4.14v2.7C359.5,228,360.5,226.89,360.78,229.54Z"/><path class="cls-5" d="M174,153.28a35.38,35.38,0,0,1,.28,11.87s-.21-.07-.42-.54v0c-.11-.59-.23-1.25-.36-2v-.06a0,0,0,0,0,0,0c-.24-1.27-.51-2.75-.81-4.37h0c-.11-.56-.21-1.13-.32-1.72s-.26-1.4-.39-2.13l-1.57-8.63c0-.14,0-.28-.07-.41l-4.08-22.44,1.65-2.38,0,0,8.28-9a16.83,16.83,0,0,0-3.52,2.15h0c-.22.16-.43.33-.65.51.49-.6,1-1.19,1.49-1.73a11.23,11.23,0,0,1,3-2.43c4-2,11,1,11,1,2-1,13,5,18,7s0,3-2,4a21.41,21.41,0,0,1-10,2c-5,0-3,0-10-2s-7,3-11,8,1,9,1,9a7,7,0,0,0-1.76,5.58l2.68-1.53c-.27.19-1.21.85-2.66,1.83a19.45,19.45,0,0,0,1.74,6.12C173.7,151.71,173.88,152.5,174,153.28Z"/><path class="cls-5" d="M197.43,165.15c1.93,3.27-1.45,7.1-1.45,7.1-6.12-.61-7.46-1.87-7.61-2,1.88,3.32,9.12,4.66,4.13,3.79-.36-.06-.7-.13-1-.2-4.15-.88-5.18-2.17-5.18-2.17s.2-2.76-1.18-14S196,148.27,196,148.27c-5.5,1.38-3.5,5.62,0,7s7.24,9.86,7.24,9.86-5.72-5.26-8.34-4.82S197.43,165.15,197.43,165.15Z"/><path class="cls-5" d="M185.5,191.89c-3,1-2,2-5,2a4.55,4.55,0,0,1-1.08-.83h0c-.09-.29-.2-.57-.3-.86-.2-.58-.42-1.16-.64-1.76-.31-.82-.63-1.67-1-2.53h0s-.11-.84-.3-2.18h0c0-.2,0-.41-.09-.64-.11-.82-.24-1.77-.39-2.82h0c.94-2.77,2-5.41,4.78-6.34,0,0,0,2,1,2a8.1,8.1,0,0,1,5.06-2,8.12,8.12,0,0,0-1.06,1c-1,1,3,1,5,0s-1,2-1,2a43.31,43.31,0,0,1,5-1c1,0,6.7-.95,10.69,5.48a11.88,11.88,0,0,1-1.69-5.48s3,1,6,6c0,0,5.56,0,3.28,1,0,0,.88-1-2.7,0s.42,1,.42,1,8,1,2,3c0,0,3-2-1-2,0,0,1,2-1,2s-3,1-5,0-3-2-4,1c0,0,0-2-5,0,0,0-3-3-5-1,0,0-2-1-3,0S188.5,190.89,185.5,191.89Z"/><path class="cls-5" d="M200.5,222.89s-12.34,1.46-17.17-19.27c0,0-2.83-8.27-1.83-9s3.88-3.86,17.94-3.79a58.28,58.28,0,0,1,25.06,6.06S224.5,217.89,200.5,222.89Z"/><path class="cls-5" d="M230.82,216.17c-12.68,13.29-8.32,14.72-10.32,16.72s-2.69-3-2.69-3a3.27,3.27,0,0,1,0-2.1,5.29,5.29,0,0,1,1-1.74,17.85,17.85,0,0,0,3.73-11.2,9.54,9.54,0,0,1,6.28-9S243.5,202.89,230.82,216.17Z"/><circle class="cls-5" cx="233.5" cy="155.89" r="1"/><path class="cls-5" d="M241.52,174.92a1.79,1.79,0,0,1,.37.52Z"/><circle class="cls-5" cx="242.5" cy="139.89" r="1"/><path class="cls-5" d="M253.5,167.89a3.37,3.37,0,0,1,.1.34A.88.88,0,0,1,253.5,167.89Z"/><path class="cls-5" d="M270,236.49a11.14,11.14,0,0,1-2.5,5.2c-2,1.8-6,1.2-9-.8s-2,1-4.87.92-7.13,6.08-9.13,7.08-3-1-8,0-8-1-9-2-4-1-5-1-5-3.84-5-3.84l-1-1.58c-.1-.51-.36-1.33,0-1.58.66-.51,3.05,1.94,6,4a29,29,0,0,0,8,4c1.08.31,7.35,2,13-1,5.93-3.11,6.2-8.68,11-9a12.94,12.94,0,0,1,5,1c3.57,1.35,4.19,3.12,6,3S269.15,238.82,270,236.49Z"/><path class="cls-5" d="M270.5,233.89a7.36,7.36,0,0,1-.5,2.6,10.22,10.22,0,0,0,.3-4.16A6.06,6.06,0,0,1,270.5,233.89Z"/><path class="cls-5" d="M287,320.89s-29.5,8-31.5,0c0,0-7.57-5.8-7.28-14.4s15-8.64,18.64-6.12S287,320.89,287,320.89Z"/><path class="cls-5" d="M277.48,325.48c1.65-1,7.29-2.5,10.89-3.39A59.66,59.66,0,0,1,277.48,325.48Z"/><path class="cls-5" d="M260.5,293.89H247.14s-6.64,4-11.64,3c-4-.8-8-3.52-11-7.13l1,2.13,2,2-3-1-2-2-2.24-3-1.49-2.62h-1l-.48-2.18-.72-1.26s-4-7.32-2-10.13,3-6.81,2-8.81c0,0-1.11,2.24-2.56,1.12,0,0,6.56-4.12,8.56-8.12,0,0,0-4.6,2-5.8,0,0-1.84,2.36,1.58,4.08,0,0,5.42-4.2,6.42-3.24,0,0-2.72,2.4-.86,4.68s3.34,4.4,5.6,3.84c0,0,1.26-4.56,4.26-5.56a4.86,4.86,0,0,1,5,1.24l3.06-4s3.94.72,3.94,2.72,2.18-8.4,5.59-6.2,3.6-1.12,9,8c0,0-1.6,3.16.4,5.16s3-4,3-4,2-3,4,3c.55,1.66.88,2.78,1.05,3.54.13-1.94.55-4.94,1.95-3.54a3.53,3.53,0,0,1,1,4l3-2s1.76,2,.88,4c0,0,4.12-2,5.12-1l2.68,2.69.11.11.11.1h0l.06.06h0l0,0L283.05,270l-.5.85a24.83,24.83,0,0,1,2.95,4s-3.75,2.73-7.27,5.59h0a34.9,34.9,0,0,0-5.73,5.4c-1.62,2.43-1.93,6.17-7.3,7.51h0A19.66,19.66,0,0,1,260.5,293.89Z"/><path class="cls-5" d="M288.43,322.07a56.37,56.37,0,0,0,5.31-2.54c-1.27,1.06-2.24,1.81-2.24,1.81S290.22,321.63,288.43,322.07Z"/><path class="cls-5" d="M308.24,161.32a1.83,1.83,0,0,1,.24-.4A2.23,2.23,0,0,1,308.24,161.32Z"/><path class="cls-5" d="M244.5,179.89a11.25,11.25,0,0,0-5-4h2c.47,0,.5-.22.39-.45a12.5,12.5,0,0,0,3.61,3.45s-1-5-4-6c.39.11,3.51,1,4.71,3.4a3.54,3.54,0,0,1,.65-3.41s-1.4-3-.4-3a1,1,0,0,0,1,1c1,0,1-2,1-2s2,0,2,4c0,0,1.39,3.32,1.7,3.16s2.14-4.77,1.41-7.79a3.74,3.74,0,0,0,1.89,1.63,3.6,3.6,0,0,0,4.36-2c1.64-3,2.64-4,2.64-3s-3,3-1,3,5.68-5.75,7.84-3.38c0,0-1.84-.62-1.84,2.38,0,0,0,3,3-1s11-5,9-4c0,0-4.81,1-5.93,3.83.2-.28,1-.83,3.93-.83,0,0,3-3,6-3,0,0-4,2-5,4,0,0-1,1,0,1,0,0,6.8-6.72,10.4-5.36,0,0-5.4,2.36-7.4,5.36,0,0,10.84-6,11-6,2,1,4-4,5-2-.11-.1-1-.87-1,1,0,0,3-1,4,0a1,1,0,0,0-1,1c0,1,2-2,4-1a2.48,2.48,0,0,0,4.74,1.44,2.06,2.06,0,0,0,.26,2.12s0-.56,3,.44a3.49,3.49,0,0,0-1,2,4.83,4.83,0,0,1,4,0,7.1,7.1,0,0,1-4,6c-4,2-3,2-5,2,0,0,1-3,3-3,0,0-2-2-7,3a4.38,4.38,0,0,1-3,1s0-1,2-2c0,0-2-1-6,4,0,0,0-3,2-4,0,0-2,0-4,3s-3,0-6,2a10.82,10.82,0,0,1,6-4s-5,0-7,1a12.76,12.76,0,0,0-3,2,6.78,6.78,0,0,1,4-4s-5,0-7,4a3.53,3.53,0,0,1,1-4s-3-.32-4.5,3.34c0,0-3.5.66-4.5,2.66,0,0-5-1-6,3,0,0,0-4-2-3,0,0-4-1-5,1s-4,0-4,0v1a3.55,3.55,0,0,1-3-2s-1,1.92-.06,2.94c-.43-.4-3-2.69-3.94.06,0,0-1,0,0,1s2,1,0,1,.24,1,.24,1h-.24s-3.77,0-5.81-2.75a4.28,4.28,0,0,0,2.81,1.53s-4.95-3.75-7-5.76c.34.22,3,2,4,2S243.5,180.89,244.5,179.89Z"/><path class="cls-5" d="M329,191.65c-1.46,14.76-26.54,23.24-33.61,23.76s-27.93-3.52-32.31-10.52-5.62-4-8.42-6.58.8-11.29.8-11.29c2,1.13,6.22-2.13,6.22-2.13,21.22-12,30.78-4,41.64-3.5s12-5.5,12-5.5S330.5,176.89,329,191.65Z"/><circle class="cls-5" cx="348.5" cy="193.89" r="1"/><circle class="cls-5" cx="348.5" cy="176.89" r="1"/><line class="cls-5" x1="192.51" y1="95.15" x2="192.5" y2="95.15"/><line class="cls-5" x1="182.87" y1="93.87" x2="182.86" y2="93.87"/><path class="cls-5" d="M355.29,189a50.46,50.46,0,0,1-3.12-12.32h0c-1.67-.14-1.67.11-1.67-2.8s1.83-1,1.83-1,0-6-1.83-5-1.83,2-1.83,2c-5.48-4-2.74-8-2.74-8A8,8,0,0,1,348,159c-1.47,1-3-1.13-3-1.13,0-3,5.49-3,1.83-3s-6.4-4-4.57-5,2.74-6,1.83-7-3.66,3-4.57,4-.92-9-.92-9c-5.32,1-7.85-7.95-8-8.48,1.11,4.49-3,9.48-3,9.48-1.83,0-.91-7-2.74-9s-2.74,2-3.66,4c-.44,1-1.11-2.34-1.67-6a81.1,81.1,0,0,1-31.07,17s-29,4-45-9c0,0-26.38-14.83-36.26-17.62a12.85,12.85,0,0,1-3.37-1.48c-3.8-2.4-13.86-7.9-26.37-7.9a47.43,47.43,0,0,0-13.2,3"/><path class="cls-5" d="M162.83,103.79c-.09-.52-.18-1-.27-1.51"/><path class="cls-5" d="M375.56,128.42,373.63,134l-1.83,5.31-3.22,9.35c-3.63,4.21-5.25,6.88-5.93,8.55v0c-.15.54-.29,1.08-.41,1.62v0c-.05.77.27,1,.27,1L361.45,164"/><line class="cls-5" x1="353.95" y1="116.62" x2="353.93" y2="116.62"/><line class="cls-5" x1="363.2" y1="117.85" x2="363.19" y2="117.85"/><path class="cls-45" d="M285.5,274.89s-3.75,2.73-7.27,5.59h0a34.9,34.9,0,0,0-5.73,5.4c-1.62,2.43-1.93,6.17-7.3,7.51h0a19.66,19.66,0,0,1-4.69.49H247.14s-6.64,4-11.64,3c-4-.8-8-3.52-11-7.13,0,0,0,0,0,0a22.21,22.21,0,0,1-2-2.84c-3-5-2.41-7-2.41-7s3.59,5,0-2a12.78,12.78,0,0,1,8.41-18h3.34s3.66,3,6.66,3,3,2,9-4c0,0,5-4.32,22,5.84,0,0,4,3.16,8,3.16,1.58,0,3.16,1.09,4.49,2.41.19.19.38.38.56.58A24.83,24.83,0,0,1,285.5,274.89Z"/><path class="cls-46" d="M224.5,277.51s-3-.62-3-6.62,9-8,9-8,4-2,5,2,5,2,8,0,6.76-7,11.38-2.5c0,0,.62,1.5,4.62,1.5s9,7,16,9-5,16-11,18-18,2-18,2-12.92,7-16.46,0c0,0-7.54-5-6.54-10l1-5Z"/><path class="cls-47" d="M272.5,273.89a24.27,24.27,0,0,0-5.67,1.41,30.34,30.34,0,0,1-5.83,1.53,23.41,23.41,0,0,1-3,.34,10,10,0,0,1-1.63,0l-.44-.07-.52-.16a2.9,2.9,0,0,1-.33-.2c-.1-.06-.25-.19-.21-.14s0,0-.06,0a4.64,4.64,0,0,0-1.14-.13c-.45,0-.92,0-1.39,0-.95.07-1.91.19-2.87.32s-1.92.27-2.89.43-1.83.44-2.8.66a24.19,24.19,0,0,1-6,.85,11.74,11.74,0,0,1-3.11-.44l-1.39-.45a10.54,10.54,0,0,0-1.38-.28,12,12,0,0,0-5.69.72,10.7,10.7,0,0,1,5.75-1.7,11.72,11.72,0,0,1,1.56.13c.51.09,1.05.23,1.47.3a11,11,0,0,0,2.75.16,27.11,27.11,0,0,0,5.6-1.12c.95-.26,1.87-.55,2.95-.76s2-.34,3-.48,2-.23,3-.29c.51,0,1,0,1.57,0a5.37,5.37,0,0,1,1.77.3,1.81,1.81,0,0,1,.59.35c.14.12.1.06.1.06h0a1.52,1.52,0,0,1,.2.06l.28.06a9,9,0,0,0,1.32.1c.94,0,1.91-.06,2.87-.14a38.21,38.21,0,0,0,5.73-.92A18.55,18.55,0,0,1,272.5,273.89Z"/><path d="M245.35,278.29A12.45,12.45,0,0,0,244,283a11.25,11.25,0,0,0,.06,2.46,13.41,13.41,0,0,0,.5,2.41h0a8.28,8.28,0,0,1-.73-2.39,9.17,9.17,0,0,1,0-2.51,12.06,12.06,0,0,1,1.58-4.71Z"/><path d="M246.51,279.89c-.18,1.79-.3,3.59-.33,5.39,0,.9,0,1.8,0,2.69a15.14,15.14,0,0,0,.28,2.68h0A9.64,9.64,0,0,1,246,288a22.28,22.28,0,0,1,0-2.71,50.93,50.93,0,0,1,.51-5.39Z"/><path d="M251.29,279.89a4.91,4.91,0,0,0-.33,2.8,4.79,4.79,0,0,0,.47,1.33,9,9,0,0,0,.71,1.24l0,0a4.43,4.43,0,0,1-.92-1.14,4,4,0,0,1-.43-1.41,4.75,4.75,0,0,1,.5-2.85Z"/><path d="M257.23,279.89a8.72,8.72,0,0,0,2.12,6.39,12.58,12.58,0,0,0,1.66,1.6l0,0a7.31,7.31,0,0,1-1.82-1.46,6.87,6.87,0,0,1-1.26-2,8.67,8.67,0,0,1-.7-4.57Z"/><path d="M259.1,281.82a28.75,28.75,0,0,1,2.31,2.85,11.54,11.54,0,0,1,1.76,3.21h0c-.63-1.05-1.25-2.08-1.9-3.11s-1.4-2-2.17-2.94Z"/><path d="M263.17,277.52a2.42,2.42,0,0,0,.29,1.8c.31.54.69,1,1.05,1.56l0,0a4,4,0,0,1-.72-.65,3.76,3.76,0,0,1-.49-.85,2.4,2.4,0,0,1-.13-1.89Z"/><path d="M267.62,276.26a4.31,4.31,0,0,1,.57,2.31,4.8,4.8,0,0,1-.13,1.2,4.92,4.92,0,0,1-.44,1.12h0c.07-.39.17-.77.23-1.16a11.39,11.39,0,0,0,.17-1.15,4.39,4.39,0,0,0-.4-2.29Z"/><path d="M237.25,281.83a21.56,21.56,0,0,1-1,3.69,10.62,10.62,0,0,1-1.77,3.38l0,0c.58-1.13,1.12-2.26,1.61-3.43a27.09,27.09,0,0,0,1.13-3.62Z"/><path d="M233.11,281.84a10.41,10.41,0,0,0-2.39,3.25,4.5,4.5,0,0,0-.41,1.93,3.68,3.68,0,0,0,.64,1.86l0,0a3,3,0,0,1-.86-1.87,3.93,3.93,0,0,1,.47-2,10.16,10.16,0,0,1,2.55-3.19Z"/><path d="M245.35,268.51a11.37,11.37,0,0,0,.18,3.59,3.9,3.9,0,0,0,2,2.78v0a2.6,2.6,0,0,1-1.5-1,4.18,4.18,0,0,1-.67-1.72,10.54,10.54,0,0,1,0-3.63Z"/><path d="M251.51,265.88a5.9,5.9,0,0,1,.11,2.51,7.29,7.29,0,0,1-.27,1.23,6,6,0,0,1-.54,1.14h0c.09-.41.22-.8.32-1.2s.22-.79.31-1.2a6.17,6.17,0,0,0,.07-2.46Z"/><path d="M256.51,268.88a3.21,3.21,0,0,1,.21,2.18,3,3,0,0,1-1.21,1.84l0,0c.2-.31.42-.6.59-.91a4.94,4.94,0,0,0,.45-1,3.42,3.42,0,0,0,0-2.12Z"/><path d="M235.88,269.85c1,1.1,1.91,2.18,2.9,3.23.51.52,1,1,1.52,1.55a12.11,12.11,0,0,0,1.6,1.44l0,0a7.46,7.46,0,0,1-1.76-1.29c-.52-.51-1-1.05-1.49-1.59q-1.44-1.64-2.77-3.35Z"/><path d="M229.51,270.89a14.89,14.89,0,0,0,1.15,2.73,7.1,7.1,0,0,0,1.85,2.26l0,0a3.05,3.05,0,0,1-1.21-.9,6.1,6.1,0,0,1-.8-1.28,13,13,0,0,1-1-2.83Z"/><path class="cls-5" d="M283.05,270a35.47,35.47,0,0,1,2.45-3.62c1.66-2.06,4.71.31,5.68,1.17"/><path class="cls-5" d="M253.5,223.89a16.08,16.08,0,0,1,9,1c.74.32,6.39,2.75,7.72,7.12"/><path class="cls-5" d="M164.3,111.92a47.43,47.43,0,0,1,13.2-3c12.51,0,22.57,5.5,26.37,7.9a12.85,12.85,0,0,0,3.37,1.48c9.88,2.79,36.26,17.62,36.26,17.62,16,13,45,9,45,9a81.1,81.1,0,0,0,31.07-17c.56,3.65,1.23,7,1.67,6,.92-2,1.83-6,3.66-4s.91,9,2.74,9c0,0,4.09-5,3-9.48.14.53,2.67,9.45,8,8.48,0,0,0,10,.92,9s3.66-5,4.57-4,0,6-1.83,7,.92,5,4.57,5-1.83,0-1.83,3c0,0,1.56,2.12,3,1.13a8,8,0,0,0-2.11,2.87s-2.74,4,2.74,8c0,0,0-1,1.83-2s1.83,5,1.83,5-1.83-2-1.83,1,0,2.66,1.67,2.8h0A50.46,50.46,0,0,0,355.29,189a30.76,30.76,0,0,0,1.89,3.87c4.68,8,0,13.11,0,13.11a28.68,28.68,0,0,0-2.64,5.72c-1.58,5-.12,7.11-.12,7.11,3.92,5.94,3.08,14.06,1.08,18.06s3,12,1,10c-1.62-1.62-1.27-1.93-1.08-2-1.95.21-2.92,8-2.92,12s-1,6-2,7-1-2-1-2c-2-1-2,3-2,3-1-3,0-4,0-4-2,0-6,4-3,7s1.12,4.76,1.12,4.76-4.12-1.76-3.89,3.44-1.23,4.8-4.77,2.49-3.87,2.31-3.87,2.31a7,7,0,0,1-.54,7c-1.95,3-4.05,3-5.05,3s1.72-3,1.72-3c-2.28-1-6.72,7-6.72,7-2,0,2-5,2-5-3,0-5.63,6.11-5.63,6.11a28,28,0,0,1-5.37.89c-2,0-5,8-5,8,1-6-1-6-5-4s-2,5-1,7-3,1-3,1.57,1,2.43,0,4.43c-.63,1.26-3.62,3.87-5.76,5.64a56.37,56.37,0,0,1-5.31,2.54l-.06,0c-3.6.89-9.24,2.38-10.89,3.39-9.74,2-22.13,1.89-34-6l0,0c-3.31-3.17-6.93-7-7.95-9.57,0,0-6.32-5.87-12.29-12.7-3.94-4.51-7.71-9.44-9.42-13.38a198.21,198.21,0,0,1-26.61-54.36s-4.68-11.63-4.18-23.59a100.57,100.57,0,0,0-3.58-12.8,4.55,4.55,0,0,0,1.08.83c3,0,2-1,5-2s3-2,4-3,3,0,3,0c2-2,5,1,5,1,5-2,5,0,5,0,1-3,2-2,4-1s3,0,5,0,1-2,1-2c4,0,1,2,1,2,6-2-2-3-2-3s-4,0-.42-1,2.7,0,2.7,0c2.28-1-3.28-1-3.28-1-3-5-6-6-6-6a11.88,11.88,0,0,0,1.69,5.48c-4-6.43-9.72-5.48-10.69-5.48a43.31,43.31,0,0,0-5,1s3-3,1-2-6,1-5,0a8.12,8.12,0,0,1,1.06-1,8.1,8.1,0,0,0-5.06,2c-1,0-1-2-1-2-2.78.93-3.84,3.57-4.78,6.34-.67-4.8-1.62-11.35-2.22-14.34-.1-.49-.31-1.63-.62-3.28.21.47.42.54.42.54a35.38,35.38,0,0,0-.28-11.87c-.14-.78-.32-1.57-.52-2.39a19.45,19.45,0,0,1-1.74-6.12c1.45-1,2.39-1.64,2.66-1.83l-2.68,1.53a7,7,0,0,1,1.76-5.58s-5-4-1-9,4-10,11-8,5,2,10,2a21.41,21.41,0,0,0,10-2c2-1,7-2,2-4s-16-8-18-7c0,0-7-3-11-1a11.23,11.23,0,0,0-3,2.43c-.5.54-1,1.13-1.49,1.73.22-.18.43-.35.65-.51h0a16.83,16.83,0,0,1,3.52-2.15l-8.28,9,0,0-1.65,2.38"/><path class="cls-5" d="M197.43,165.15c1.93,3.27-1.45,7.1-1.45,7.1-6.12-.61-7.46-1.87-7.61-2,1.88,3.32,9.12,4.66,4.13,3.79-.36-.06-.7-.13-1-.2-4.15-.88-5.18-2.17-5.18-2.17s.2-2.76-1.18-14S196,148.27,196,148.27c-5.5,1.38-3.5,5.62,0,7s7.24,9.86,7.24,9.86-5.72-5.26-8.34-4.82S197.43,165.15,197.43,165.15Z"/><path class="cls-5" d="M308.48,160.92a2.23,2.23,0,0,1-.24.4A1.83,1.83,0,0,1,308.48,160.92Z"/><path class="cls-5" d="M253.6,168.23a.88.88,0,0,1-.1-.34A3.37,3.37,0,0,1,253.6,168.23Z"/><circle class="cls-5" cx="242.5" cy="139.89" r="1"/><path class="cls-5" d="M239.5,175.89h2c.47,0,.5-.22.39-.45l-.37-.52a1.79,1.79,0,0,1,.37.52,12.5,12.5,0,0,0,3.61,3.45s-1-5-4-6c.39.11,3.51,1,4.71,3.4a3.54,3.54,0,0,1,.65-3.41s-1.4-3-.4-3a1,1,0,0,0,1,1c1,0,1-2,1-2s2,0,2,4c0,0,1.39,3.32,1.7,3.16s2.14-4.77,1.41-7.79a3.74,3.74,0,0,0,1.89,1.63,3.6,3.6,0,0,0,4.36-2c1.64-3,2.64-4,2.64-3s-3,3-1,3,5.68-5.75,7.84-3.38c0,0-1.84-.62-1.84,2.38,0,0,0,3,3-1s11-5,9-4c0,0-4.81,1-5.93,3.83.2-.28,1-.83,3.93-.83,0,0,3-3,6-3,0,0-4,2-5,4,0,0-1,1,0,1,0,0,6.8-6.72,10.4-5.36,0,0-5.4,2.36-7.4,5.36,0,0,10.84-6,11-6,2,1,4-4,5-2-.11-.1-1-.87-1,1,0,0,3-1,4,0a1,1,0,0,0-1,1c0,1,2-2,4-1a2.48,2.48,0,0,0,4.74,1.44,2.06,2.06,0,0,0,.26,2.12s0-.56,3,.44a3.49,3.49,0,0,0-1,2,4.83,4.83,0,0,1,4,0,7.1,7.1,0,0,1-4,6c-4,2-3,2-5,2,0,0,1-3,3-3,0,0-2-2-7,3a4.38,4.38,0,0,1-3,1s0-1,2-2c0,0-2-1-6,4,0,0,0-3,2-4,0,0-2,0-4,3s-3,0-6,2a10.82,10.82,0,0,1,6-4s-5,0-7,1a12.76,12.76,0,0,0-3,2,6.78,6.78,0,0,1,4-4s-5,0-7,4a3.53,3.53,0,0,1,1-4s-3-.32-4.5,3.34c0,0-3.5.66-4.5,2.66,0,0-5-1-6,3,0,0,0-4-2-3,0,0-4-1-5,1s-4,0-4,0v1a3.55,3.55,0,0,1-3-2s-1,1.92-.06,2.94c-.43-.4-3-2.69-3.94.06,0,0-1,0,0,1s2,1,0,1,.24,1,.24,1h-.24s-3.77,0-5.81-2.75a4.28,4.28,0,0,0,2.81,1.53s-4.95-3.75-7-5.76c.34.22,3,2,4,2s2,1,3,0A11.25,11.25,0,0,0,239.5,175.89Z"/><path class="cls-5" d="M216.5,238.89c.66-.51,3.05,1.94,6,4a29,29,0,0,0,8,4c1.08.31,7.35,2,13-1,5.93-3.11,6.2-8.68,11-9a12.94,12.94,0,0,1,5,1c3.57,1.35,4.19,3.12,6,3s3.65-2.07,4.5-4.4a10.22,10.22,0,0,0,.3-4.16,6.06,6.06,0,0,1,.2,1.56,7.36,7.36,0,0,1-.5,2.6,11.14,11.14,0,0,1-2.5,5.2c-2,1.8-6,1.2-9-.8s-2,1-4.87.92-7.13,6.08-9.13,7.08-3-1-8,0-8-1-9-2-4-1-5-1-5-3.84-5-3.84l-1-1.58C216.44,240,216.18,239.14,216.5,238.89Z"/><circle class="cls-5" cx="233.5" cy="155.89" r="1"/><path class="cls-5" d="M228.78,205.86s14.72-3,2,10.31-8.32,14.72-10.32,16.72-2.69-3-2.69-3a3.27,3.27,0,0,1,0-2.1,5.29,5.29,0,0,1,1-1.74,17.85,17.85,0,0,0,3.73-11.2A9.54,9.54,0,0,1,228.78,205.86Z"/><path class="cls-5" d="M200.5,222.89s-12.34,1.46-17.17-19.27c0,0-2.83-8.27-1.83-9s3.88-3.86,17.94-3.79a58.28,58.28,0,0,1,25.06,6.06S224.5,217.89,200.5,222.89Z"/><path class="cls-12" d="M255.5,320.89s-7.57-5.8-7.28-14.4,15-8.64,18.64-6.12S287,320.89,287,320.89,257.5,328.89,255.5,320.89Z"/><path class="cls-5" d="M283.05,270l-.5.85a24.83,24.83,0,0,1,2.95,4s-3.75,2.73-7.27,5.59h0a34.9,34.9,0,0,0-5.73,5.4c-1.62,2.43-1.93,6.17-7.3,7.51h0a19.66,19.66,0,0,1-4.69.49H247.14s-6.64,4-11.64,3c-4-.8-8-3.52-11-7.13l1,2.13,2,2-3-1-2-2-2.24-3-1.49-2.62h-1l-.48-2.18-.72-1.26s-4-7.32-2-10.13,3-6.81,2-8.81c0,0-1.11,2.24-2.56,1.12,0,0,6.56-4.12,8.56-8.12,0,0,0-4.6,2-5.8,0,0-1.84,2.36,1.58,4.08,0,0,5.42-4.2,6.42-3.24,0,0-2.72,2.4-.86,4.68s3.34,4.4,5.6,3.84c0,0,1.26-4.56,4.26-5.56a4.86,4.86,0,0,1,5,1.24l3.06-4s3.94.72,3.94,2.72,2.18-8.4,5.59-6.2,3.6-1.12,9,8c0,0-1.6,3.16.4,5.16s3-4,3-4,2-3,4,3c.55,1.66.88,2.78,1.05,3.54.13-1.94.55-4.94,1.95-3.54a3.53,3.53,0,0,1,1,4l3-2s1.76,2,.88,4c0,0,4.12-2,5.12-1l2.68,2.69.11.11.11.1h0l.06.06h0l0,0Z"/><path class="cls-5" d="M329,191.65c-1.46,14.76-26.54,23.24-33.61,23.76s-27.93-3.52-32.31-10.52-5.62-4-8.42-6.58.8-11.29.8-11.29c2,1.13,6.22-2.13,6.22-2.13,21.22-12,30.78-4,41.64-3.5s12-5.5,12-5.5S330.5,176.89,329,191.65Z"/><circle class="cls-5" cx="348.5" cy="193.89" r="1"/><circle class="cls-5" cx="348.5" cy="176.89" r="1"/><path class="cls-5" d="M220.5,225.89c.25.73.41,1.59,0,2s-1.53-.21-2.68-.06l-.32.06c-1.92.54-2.65,3.56-3,5a8.84,8.84,0,0,0,0,5c.56,1.73,1.71,3.13,2,3,.08,0,.08-.2,0-.42"/><path class="cls-12" d="M270,236.49a11.14,11.14,0,0,1-2.5,5.2c-2,1.8-6,1.2-9-.8s-2,1-4.87.92-7.13,6.08-9.13,7.08-3-1-8,0-8-1-9-2-4-1-5-1-5-3.84-5-3.84l-1-1.58c-.1-.51-.36-1.33,0-1.58.66-.51,3.05,1.94,6,4a29,29,0,0,0,8,4c1.08.31,7.35,2,13-1,5.93-3.11,6.2-8.68,11-9a12.94,12.94,0,0,1,5,1c3.57,1.35,4.19,3.12,6,3S269.15,238.82,270,236.49Z"/><path class="cls-12" d="M230.82,216.17c-12.68,13.29-8.32,14.72-10.32,16.72s-2.69-3-2.69-3a3.27,3.27,0,0,1,0-2.1,5.29,5.29,0,0,1,1-1.74,17.85,17.85,0,0,0,3.73-11.2,9.54,9.54,0,0,1,6.28-9S243.5,202.89,230.82,216.17Z"/><path d="M267.13,223.55a5.16,5.16,0,0,1,2.09.94,18.51,18.51,0,0,1,1.79,1.38,38.28,38.28,0,0,1,3.15,3.22,20.35,20.35,0,0,1,2.77,3.52,14.87,14.87,0,0,1,1.66,4.23l-.18.1a19,19,0,0,1-3.13-3.21,40.23,40.23,0,0,1-2.38-3.66,39.16,39.16,0,0,0-2.6-3.5,18.47,18.47,0,0,0-1.46-1.6,5.63,5.63,0,0,0-1.73-1.22Z"/><path class="cls-5" d="M288.37,322.09a59.66,59.66,0,0,1-10.89,3.39C279.13,324.47,284.77,323,288.37,322.09Z"/><path class="cls-5" d="M317.49,297.9c-.11.3-2,5-3,6a1.39,1.39,0,0,0-2,0c-1,1-1,3-2,2,0,0,0-5,2-6S314.5,300.89,317.49,297.9Z"/><path class="cls-5" d="M328.5,291.89s0,1.26-2.5,2.63-2.5,2.65-2.5,2.65-2-1.28,0-2.28c0,0,3-6,3-4S328.5,291.89,328.5,291.89Z"/><path class="cls-5" d="M336.5,282.89c-.92.92-1.09,3.35-1.12,3.74a2.43,2.43,0,0,0-.88-1.74,2.07,2.07,0,0,1,0-3c.92-.92.15-2.67,0-3C334.81,279.21,337.45,281.94,336.5,282.89Z"/><path class="cls-5" d="M335.38,286.69v0Z"/><path class="cls-5" d="M345.5,267.89c-1-1-.59-1,.21-1s1-1.34-.09-1.17a.86.86,0,0,1-1.12-.83c2-2,1,1,2,1S346.5,268.89,345.5,267.89Z"/><path class="cls-5" d="M348.5,267.89c-1,2,0,1-1,3s-1-2-1-2l1-1c1-1,0-1,2-2S349.5,265.89,348.5,267.89Z"/><path class="cls-5" d="M357.5,248.89a8.22,8.22,0,0,1-2.18,6c-1.82,2-.82,5.2-1.82,5.1s.06-5.1.06-5.1h-.06a5.55,5.55,0,0,0,2-3C356.5,248.89,357.5,246.89,357.5,248.89Z"/><path class="cls-5" d="M359.5,244.89s0-2.34-1-1.67-1,.18-1,.18a4,4,0,0,1-1-4.51c1-3,0-2.7,1-.35s2,3.35,3,3.35S359.5,244.89,359.5,244.89Z"/><circle class="cls-5" cx="360.5" cy="200.89" r="1"/><path class="cls-5" d="M360.78,229.54a8.67,8.67,0,0,0,1.72,4.35c-1,4-2,1-2-1s-1-1-2-2,0-2,1-4.14v2.7C359.5,228,360.5,226.89,360.78,229.54Z"/><path class="cls-5" d="M355.29,189a50.46,50.46,0,0,1-3.12-12.32h0"/><path class="cls-5" d="M373.63,134l6.22-.48,1.14-.08h0l1.5-.12,1.2,1v0l-.36,1.37-.46,1.76c-2.7.51-6,2.32-9.9,6.39-1.72,1.79-3.17,3.38-4.39,4.8,0,0-3.78.88-5.93,8.55v0c-.15.54-.29,1.08-.41,1.62v0a40.37,40.37,0,0,0-.78,5.09"/><path class="cls-5" d="M335.38,286.69v0Z"/><path class="cls-39" d="M364.84,209.56a146.31,146.31,0,0,0-1.6-14.67,15.41,15.41,0,0,1,1.08-10.12c-3.18-9.12-2.82-11.88-2.82-11.88a46.49,46.49,0,0,1-.05-8.89l-6.16,25a30.76,30.76,0,0,0,1.89,3.87c4.68,8,0,13.11,0,13.11a28.68,28.68,0,0,0-2.64,5.72c-1.58,5-.12,7.11-.12,7.11,3.92,5.94,3.08,14.06,1.08,18.06s3,12,1,10c-1.62-1.62-1.27-1.93-1.08-2-1.95.21-2.92,8-2.92,12s-1,6-2,7-1-2-1-2c-2-1-2,3-2,3-1-3,0-4,0-4-2,0-6,4-3,7s1.12,4.76,1.12,4.76-4.12-1.76-3.89,3.44-1.23,4.8-4.77,2.49-3.87,2.31-3.87,2.31a7,7,0,0,1-.54,7c-1.95,3-4.05,3-5.05,3s1.72-3,1.72-3c-2.28-1-6.72,7-6.72,7-2,0,2-5,2-5-3,0-5.63,6.11-5.63,6.11a28,28,0,0,1-5.37.89c-2,0-5,8-5,8,1-6-1-6-5-4s-2,5-1,7-3,1-3,1.57,1,2.43,0,4.43c-.63,1.26-3.62,3.87-5.76,5.64-1.27,1.06-2.24,1.81-2.24,1.81s-1.28.29-3.07.73l-.06,0a59.66,59.66,0,0,1-10.89,3.39c-.79.48-.67.85,1,1,3.45.29,10.07-1.31,16.6-3.61,1.33-.46,2.66-.95,3.95-1.46,1.85-.74,3.64-1.51,5.29-2.29a36,36,0,0,0,7.16-4.22c6-5,16-16,19.16-17.84s3.84-2.16,4.84-5.16,6-6,8.48-8,4.52-8,7.56-12.77,2-6.23,4-8.23,2-6,2-6l2-2.06s3-4.94,5.18-14.47a52.14,52.14,0,0,0,.86-9.64C365.67,224.29,365.33,216.39,364.84,209.56Zm-30.07,75.63a3.65,3.65,0,0,0-.27-.3A3.65,3.65,0,0,1,334.77,285.19Zm.21.28-.1-.14Zm.11.18a.43.43,0,0,0,0,.07A.43.43,0,0,1,335.09,285.65Zm.13.27,0,0Zm.09.23Zm.07.41c0-.1,0-.28.05-.49,0,.26,0,.47-.05.56Zm.06-.58a.78.78,0,0,0,0-.16A.7.7,0,0,1,335.44,286Zm.76-2.69a2.09,2.09,0,0,1,.3-.4A2.09,2.09,0,0,0,336.2,283.29Zm-.25.49a.31.31,0,0,0,.05-.1A.31.31,0,0,1,336,283.78Z"/><path class="cls-5" d="M294.5,320.89a5.12,5.12,0,0,1,.52,3.55"/><path class="cls-5" d="M297.5,319.89s3.48,2.11,1.24,4.55"/><path class="cls-5" d="M302.5,317.89c5,4,8,.72,8,.72"/><path d="M395.69,274.86a18.82,18.82,0,0,1,1.52-4.9,17.55,17.55,0,0,1,2.81-4.41,14,14,0,0,1,4.19-3.31,14.76,14.76,0,0,1,5.19-1.58l.86-.14.4,1a5,5,0,0,0,.31.62,6.68,6.68,0,0,0,.46.67,8.89,8.89,0,0,0,1.17,1.21,10.58,10.58,0,0,0,3,1.75,21.45,21.45,0,0,0,3.51,1l1.85.25,1.87.17.81.07.33.69a10.24,10.24,0,0,0,3.54,4.31,5.24,5.24,0,0,0,2.55.8c.45,0,.89,0,1.52-.1a11.07,11.07,0,0,1,1.73,0,19.47,19.47,0,0,1,3.27.61q1.59.4,3.12,1a59.1,59.1,0,0,1,6,2.52l-.28-.05c3-.45,6-.7,9.07-.89a71.84,71.84,0,0,1,9.16.06,39.6,39.6,0,0,1,4.58.6,34.74,34.74,0,0,1,4.54,1.16,22.37,22.37,0,0,1,8.3,4.74l-1.32-.38a41.14,41.14,0,0,1,7.11-.78,35.2,35.2,0,0,1,7.15.57,23,23,0,0,1,6.89,2.49,18.24,18.24,0,0,1,3,2.2,17.56,17.56,0,0,1,2.44,2.87l-1.31-.58c2.18-.21,4.28-.27,6.42-.29s4.25.09,6.37.24,4.24.39,6.33.76a49.54,49.54,0,0,1,6.17,1.5l-.06.29c-2.09-.27-4.16-.53-6.25-.62s-4.16-.18-6.24-.11-4.16.17-6.23.31-4.15.38-6.15.66l-.79.11-.52-.69A14.13,14.13,0,0,0,502,289a16.84,16.84,0,0,0-2.58-1.73,20.81,20.81,0,0,0-6-2,33.47,33.47,0,0,0-6.51-.57,39.27,39.27,0,0,0-6.54.5l-.8.13-.52-.51a20.66,20.66,0,0,0-7.15-4.4,42.11,42.11,0,0,0-8.48-2.21,59.81,59.81,0,0,0-8.89-.77,57,57,0,0,0-8.95.5l-.15,0-.13-.06a38.39,38.39,0,0,0-5.88-2.36,21.1,21.1,0,0,0-6.13-1.05,10.18,10.18,0,0,0-1.48.13l-1.67.26a7.18,7.18,0,0,1-3.59-.76,10.14,10.14,0,0,1-2.86-2.18,12.81,12.81,0,0,1-2-2.92l1.14.76-2.06-.1c-.68-.07-1.37-.18-2.05-.27a17.84,17.84,0,0,1-4.05-1.18,13.15,13.15,0,0,1-3.7-2.26,10.47,10.47,0,0,1-1.5-1.68,9.48,9.48,0,0,1-.6-1,6.4,6.4,0,0,1-.48-1.18l1.26.89a14.13,14.13,0,0,0-4.48,1.08,13.59,13.59,0,0,0-3.91,2.59,20,20,0,0,0-3.06,3.75,23.25,23.25,0,0,0-2.16,4.46Z"/><path d="M133.18,339.44c1.28-.46,2.61-.89,3.89-1.29a36.88,36.88,0,0,0,3.74-1.38,18.08,18.08,0,0,0,3.35-1.87,7.7,7.7,0,0,0,1.34-1.18,4.27,4.27,0,0,0,.51-.65c.06-.11.13-.21.18-.31s.09-.26.07-.18l.44-.69a12.51,12.51,0,0,1,3.86-2,17.83,17.83,0,0,1,4.1-.72,23.71,23.71,0,0,1,4.05.14,30.22,30.22,0,0,1,4,.72l-.79.25a41.39,41.39,0,0,1,5.31-3.82c1.84-1.14,3.71-2.19,5.59-3.22s3.79-2,5.54-3.15a11.68,11.68,0,0,0,1.18-.88,8.75,8.75,0,0,0,1-1.07,5.46,5.46,0,0,0,.66-1.17,5.06,5.06,0,0,0,.18-.6,2.3,2.3,0,0,0,.06-.47l-.47-.64,1.31-.46a63.54,63.54,0,0,0,10.43-4.58,24.72,24.72,0,0,0,4.43-3.17c.3-.27.7-.67,1.07-1s.77-.71,1.19-1a12.15,12.15,0,0,1,2.89-1.7,29.71,29.71,0,0,1,6-1.24c1.88-.32,3.76-.68,5.62-1.15a36.24,36.24,0,0,0,5.44-1.73,17.48,17.48,0,0,0,2.52-1.27,5.52,5.52,0,0,0,2-1.92l.3,0a5.22,5.22,0,0,1-1.69,2.58,15.44,15.44,0,0,1-2.42,1.84,31.14,31.14,0,0,1-5.45,2.57,49.17,49.17,0,0,1-5.73,1.74,38.19,38.19,0,0,0-5.37,1.39,16.08,16.08,0,0,0-4.16,3.23,23.21,23.21,0,0,1-5.17,3.5A50.55,50.55,0,0,1,182.8,317l.84-1.1a3.71,3.71,0,0,1-.23,1.1,6.51,6.51,0,0,1-.4.89,7.49,7.49,0,0,1-1.1,1.48,9.68,9.68,0,0,1-1.34,1.16,12.31,12.31,0,0,1-1.5.87c-2,.94-3.93,1.75-5.84,2.69a41.57,41.57,0,0,0-5.47,3.23,26.54,26.54,0,0,0-4.64,4.2l-.25.3-.54-.06c-1.22-.13-2.51-.15-3.75-.16a35,35,0,0,0-3.71.2,13.51,13.51,0,0,0-6.57,2.09l.44-.68a2.83,2.83,0,0,1-.34.75,4.35,4.35,0,0,1-.36.55,6.49,6.49,0,0,1-.81.91,10.27,10.27,0,0,1-1.82,1.38,18.34,18.34,0,0,1-4,1.7,28.24,28.24,0,0,1-4.11.83c-1.37.19-2.71.3-4.09.41Z"/><path d="M357.49,359.74c6.41-2.23,12.06-5.8,17.75-9.32a79.54,79.54,0,0,0,8.51-5.55c1.3-1.08,2.55-2.23,3.78-3.4s2.29-2.51,3.41-3.78l1.65-1.93c.55-.65,1.05-1.34,1.59-2,1.05-1.32,2.15-2.61,3.24-3.9s2.07-2.67,3.12-4,2.12-2.63,3.16-4c2-2.7,4.19-5.31,6.34-7.94s4.21-5.34,6.53-7.89l.26.16c-1.47,3.11-3.14,6.11-4.85,9.09-.87,1.48-1.86,2.88-2.81,4.31s-1.94,2.83-2.94,4.23c-2.14,2.69-4.35,5.32-6.67,7.85a82.25,82.25,0,0,1-7.45,7.13l-3.89,3.37c-1.32,1.09-2.6,2.21-3.85,3.39-2.57,2.25-4.95,4.78-7.72,6.87a42.41,42.41,0,0,1-9,5.18c-.8.33-1.62.63-2.43.94s-1.68.51-2.51.74a18.89,18.89,0,0,1-5.19.7Z"/><path d="M416.85,270a20,20,0,0,1,1.63,5.59,22.37,22.37,0,0,1,.19,5.78c-.24,1.92-.85,3.8-1.16,5.68s-.48,3.78-.63,5.72a25.08,25.08,0,0,1-1.09,5.74,25.34,25.34,0,0,1-2.33,5.44,19.75,19.75,0,0,1-8.67,7.85l-.18-.24c1.15-1.58,2.3-3,3.3-4.55s1.93-3.06,2.76-4.66,1.72-3.16,2.46-4.83,1.44-3.38,2.15-5.12a18.4,18.4,0,0,0,1.27-5.46,37.77,37.77,0,0,0-.38-5.63c-.15-1.86-.06-3.71,0-5.57s.15-3.74.41-5.68Z"/></g></svg>